<?xml version="1.0" encoding="UTF-8"?>
<svg version="1.1" xmlns="http://www.w3.org/2000/svg" width="942" height="754">
<path d="M0 0 C310.86 0 621.72 0 942 0 C942 248.82 942 497.64 942 754 C631.14 754 320.28 754 0 754 C0 505.18 0 256.36 0 0 Z " fill="#041558" transform="translate(0,0)"/>
<path d="M0 0 C11.45888473 8.79802011 18.30241426 20.6449905 21.31445312 34.70117188 C21.89424907 42.81831504 21.48597316 50.14824242 20.00195312 58.13867188 C18.65858371 65.37411852 18.37270445 71.87837878 19.56445312 79.20117188 C19.97695313 78.74097656 20.38945313 78.28078125 20.81445312 77.80664062 C26.14645542 72.91500459 33.62884429 72.89850002 40.47460938 73.09570312 C41.16425781 73.13050781 41.85390625 73.1653125 42.56445312 73.20117188 C42.56445312 73.86117187 42.56445312 74.52117187 42.56445312 75.20117188 C43.89476562 75.57242188 43.89476562 75.57242188 45.25195312 75.95117188 C50.47158215 77.92084321 54.18834591 80.85878446 56.82617188 85.88476562 C58.73003547 91.85826358 59.04725295 98.99418621 56.38867188 104.74414062 C53.67397148 108.48299156 50.4159786 111.63348823 46.56445312 114.20117188 C45.90445313 114.20117188 45.24445313 114.20117188 44.56445312 114.20117188 C44.56445312 114.86117187 44.56445312 115.52117187 44.56445312 116.20117188 C42.56490566 116.24371544 40.56403676 116.2419797 38.56445312 116.20117188 C37.56445312 115.20117188 37.56445312 115.20117188 37.23242188 112.82617188 C37.56445312 110.20117188 37.56445312 110.20117188 39.42773438 108.57617188 C40.23597656 108.12242187 41.04421875 107.66867187 41.87695312 107.20117188 C46.82273019 104.18132051 46.82273019 104.18132051 49.56445312 99.20117188 C50.0782526 94.43996345 50.24028098 90.33181875 47.56445312 86.20117188 C45.86718088 84.88907182 45.86718088 84.88907182 43.93945312 83.95117188 C42.82570313 83.37367188 41.71195313 82.79617188 40.56445312 82.20117188 C40.56445312 81.54117188 40.56445312 80.88117188 40.56445312 80.20117188 C32.47393882 80.46361155 32.47393882 80.46361155 25.56445312 84.20117188 C22.06717411 89.14560083 21.81895833 94.33403103 22.56445312 100.20117188 C23.21637426 101.54177661 23.88117317 102.87627538 24.56445312 104.20117188 C24.03813734 108.72748766 24.03813734 108.72748766 22.56445312 110.20117188 C20.58445312 110.20117188 18.60445312 110.20117188 16.56445312 110.20117188 C16.56445312 131.32117188 16.56445312 152.44117188 16.56445312 174.20117188 C20.52445313 174.20117188 24.48445312 174.20117188 28.56445312 174.20117188 C28.47744141 172.80318359 28.47744141 172.80318359 28.38867188 171.37695312 C28.05003932 161.80816473 29.59829234 155.03763345 33.56445312 146.20117188 C34.03384539 144.7881309 34.49389659 143.37190875 34.93945312 141.95117188 C37.78624958 134.458779 43.85033776 128.74949026 49.37695312 123.13867188 C49.85712891 122.64906982 50.33730469 122.15946777 50.83203125 121.6550293 C54.31865303 118.20117188 54.31865303 118.20117188 56.56445312 118.20117188 C56.90476562 117.42773438 56.90476562 117.42773438 57.25195312 116.63867188 C58.39909252 114.50827015 59.61690784 112.75196221 61.06445312 110.82617188 C65.91416504 104.03085281 66.26362007 97.37604697 65.56445312 89.20117188 C63.92047648 82.00127415 60.35313402 76.22959823 54.25195312 72.01367188 C47.1540529 67.61205193 41.47615998 65.85498157 33.13867188 65.50976562 C30.56445312 65.20117188 30.56445312 65.20117188 28.56445312 63.20117188 C28.93945312 60.57617188 28.93945312 60.57617188 29.56445312 58.20117188 C40.9075678 57.0410806 51.19710063 59.94275141 60.63085938 66.25195312 C67.43463295 71.96063349 71.77849361 77.9893127 73.11523438 86.85351562 C73.43013933 90.65134529 73.55605184 94.39119091 73.56445312 98.20117188 C73.58765625 99.05066406 73.61085938 99.90015625 73.63476562 100.77539062 C73.31427521 110.69278859 65.26311428 119.4737611 58.56445312 126.20117188 C57.2221967 127.38152189 55.86782477 128.54823079 54.50195312 129.70117188 C43.17776062 139.38258984 37.52817812 153.97884789 36.26757812 168.65820312 C36.17949815 170.64244915 36.12807759 172.62903634 36.13085938 174.61523438 C35.27057214 178.54289057 33.82796741 179.87715413 30.56445312 182.20117188 C27.18959315 182.91865887 23.94079063 182.90055192 20.50195312 182.82617188 C19.60412109 182.84550781 18.70628906 182.86484375 17.78125 182.88476562 C11.29564614 182.83654552 11.29564614 182.83654552 8.06054688 180.02539062 C6.53983757 177.15470439 5.55076149 174.51809227 4.68945312 171.38867188 C1.49105407 161.33831792 -4.62963659 154.93955786 -13.43554688 149.20117188 C-16.386362 147.88465436 -19.30503607 146.97579725 -22.43554688 146.20117188 C-23.42554688 145.87117187 -24.41554688 145.54117188 -25.43554688 145.20117188 C-38.68160579 144.36472302 -52.06390151 144.57689863 -62.72851562 153.58007812 C-63.29183594 154.11503906 -63.85515625 154.65 -64.43554688 155.20117188 C-64.98855469 155.72582031 -65.5415625 156.25046875 -66.11132812 156.79101562 C-70.41984986 161.33474202 -72.35046594 166.37603544 -74.43554688 172.20117188 C-75.86072472 175.74754466 -77.30425948 179.00424078 -79.43554688 182.20117188 C-82.85002928 182.88677889 -86.33534806 182.71043907 -89.81054688 182.70117188 C-90.76960938 182.72953125 -91.72867188 182.75789062 -92.71679688 182.78710938 C-99.78077555 182.8067862 -99.78077555 182.8067862 -103.03710938 179.79492188 C-105.24120386 175.70688071 -105.817201 172.34166999 -106.31054688 167.76367188 C-108.24087709 151.6829637 -113.17353758 138.22586236 -126.18554688 127.79882812 C-134.03779467 121.47145881 -140.13769779 112.47769397 -143.18554688 102.82617188 C-144.36086542 90.48532716 -142.51134549 80.65337813 -134.73242188 70.71679688 C-127.4036153 62.69000872 -118.93424097 58.75267725 -108.14257812 57.95898438 C-105.19062109 57.89550143 -102.36636866 57.83893547 -99.43554688 58.20117188 C-98.44554687 59.19117188 -98.44554687 59.19117188 -97.43554688 60.20117188 C-97.97126116 63.73688616 -97.97126116 63.73688616 -99.43554688 65.20117188 C-101.22431225 65.41396964 -103.01397382 65.62119855 -104.80688477 65.7956543 C-114.72281026 66.78227507 -121.9191156 68.61384138 -128.89257812 76.17773438 C-134.27626503 83.23786049 -135.19300831 90.78175261 -134.95507812 99.50585938 C-134.14135409 105.29370101 -131.78756063 109.49066814 -128.43554688 114.20117188 C-127.69304687 115.25304687 -126.95054687 116.30492187 -126.18554688 117.38867188 C-123.72835819 119.90170576 -121.27137332 121.93295846 -118.49804688 124.07617188 C-111.41121658 129.66386499 -107.52421868 135.64760467 -103.68554688 143.70117188 C-103.39139893 144.31806885 -103.09725098 144.93496582 -102.79418945 145.57055664 C-98.35423505 155.31068251 -98.24521629 163.54265932 -98.43554688 174.20117188 C-93.15554688 174.20117188 -87.87554687 174.20117188 -82.43554688 174.20117188 C-82.39429688 173.10804688 -82.35304688 172.01492188 -82.31054688 170.88867188 C-80.87069409 159.87574379 -73.01323333 151.36835656 -64.59570312 144.75585938 C-60.94232135 142.20117188 -60.94232135 142.20117188 -58.43554688 142.20117188 C-58.43554688 133.29117188 -58.43554688 124.38117188 -58.43554688 115.20117188 C-65.61301889 116.68822173 -65.61301889 116.68822173 -68.68554688 118.32617188 C-70.43554688 119.20117188 -70.43554688 119.20117188 -74.43554688 119.20117188 C-75.06054688 115.82617187 -75.06054688 115.82617187 -75.43554688 112.20117188 C-72.70691121 109.47253621 -69.52547793 108.73031793 -65.93554688 107.57617188 C-65.24589844 107.34671875 -64.55625 107.11726563 -63.84570312 106.88085938 C-58.71665737 105.20117188 -58.71665737 105.20117188 -56.43554688 105.20117188 C-56.43554688 101.90117187 -56.43554688 98.60117187 -56.43554688 95.20117188 C-60.38160882 95.60383126 -63.4194835 96.19397105 -67.06054688 97.82617188 C-70.56693582 99.2547007 -71.91845692 99.37353519 -75.43554688 98.20117188 C-75.43554688 96.22117187 -75.43554688 94.24117188 -75.43554688 92.20117188 C-59.40501252 85.20117188 -59.40501252 85.20117188 -52.43554688 85.20117188 C-53.2158728 83.60462769 -53.2158728 83.60462769 -54.01196289 81.97583008 C-55.93982096 78.02221368 -57.84942647 74.06001163 -59.75366211 70.0949707 C-60.58009134 68.38066106 -61.4114406 66.66871416 -62.24780273 64.95922852 C-63.44973787 62.50036774 -64.6336739 60.03352926 -65.81445312 57.56445312 C-66.19146866 56.8028035 -66.56848419 56.04115387 -66.95692444 55.25642395 C-69.49711811 49.88120175 -69.49711811 49.88120175 -69.16186523 46.1784668 C-68.92218018 45.52595947 -68.68249512 44.87345215 -68.43554688 44.20117188 C-66.12304688 43.95117188 -66.12304688 43.95117188 -63.43554688 44.20117188 C-61.45944301 46.24541725 -60.43554688 47.31885438 -60.43554688 50.20117188 C-59.77554688 50.20117188 -59.11554688 50.20117188 -58.43554688 50.20117188 C-58.43554688 34.69117188 -58.43554688 19.18117187 -58.43554688 3.20117188 C-68.48378954 7.22046894 -74.62430765 14.87765393 -78.98632812 24.68945312 C-84.4982058 38.9591337 -83.23053789 51.40123565 -77.43554688 65.20117188 C-76.6803957 66.59655992 -75.8969798 67.97793559 -75.06054688 69.32617188 C-73.43554688 72.20117188 -73.43554688 72.20117188 -73.68554688 75.13867188 C-73.93304688 75.81929688 -74.18054688 76.49992187 -74.43554688 77.20117188 C-76.74414062 77.47460938 -76.74414062 77.47460938 -79.43554688 77.20117188 C-89.25468041 66.34236538 -91.09401038 51.07919218 -90.56738281 37.14306641 C-89.5647779 22.37506745 -80.98370293 9.93251477 -70.43554688 0.20117188 C-48.9956153 -16.58184932 -21.49178667 -15.71037038 0 0 Z " fill="#081758" transform="translate(505.435546875,223.798828125)"/>
<path d="M0 0 C0.66 0.66 1.32 1.32 2 2 C1.46428571 5.53571429 1.46428571 5.53571429 0 7 C-1.78876537 7.21279777 -3.57842695 7.42002667 -5.37133789 7.59448242 C-15.28726338 8.5811032 -22.48356872 10.41266951 -29.45703125 17.9765625 C-34.84071815 25.03668862 -35.75746143 32.58058074 -35.51953125 41.3046875 C-34.70580721 47.09252914 -32.35201375 51.28949626 -29 56 C-28.2575 57.051875 -27.515 58.10375 -26.75 59.1875 C-24.29281132 61.70053388 -21.83582645 63.73178659 -19.0625 65.875 C-11.97566971 71.46269312 -8.08867181 77.4464328 -4.25 85.5 C-3.95585205 86.11689697 -3.6617041 86.73379395 -3.35864258 87.36938477 C1.08131183 97.10951063 1.19033058 105.34148744 1 116 C6.28 116 11.56 116 17 116 C17.04125 114.906875 17.0825 113.81375 17.125 112.6875 C18.57520289 101.59540761 26.44332502 93.4412866 34.69921875 86.58984375 C37.98294681 84.18522399 40.98307967 83.38256384 45 83 C45 82.34 45 81.68 45 81 C58.56533185 77.38831101 73.13601509 75.04786614 86 82 C87.33287261 82.66758732 88.66606769 83.33453264 90 84 C90 84.66 90 85.32 90 86 C90.99 86.2784375 90.99 86.2784375 92 86.5625 C102.1776825 91.4393062 107.95662386 100.2015876 112.08203125 110.29296875 C113 113 113 113 113 116 C117.95 116 122.9 116 128 116 C127.896875 113.793125 127.79375 111.58625 127.6875 109.3125 C127.53251651 101.36829027 129.75393455 95.23211543 133 88 C133.46939227 86.58695903 133.92944347 85.17073687 134.375 83.75 C137.22179646 76.25760713 143.28588464 70.54831838 148.8125 64.9375 C149.29267578 64.44789795 149.77285156 63.9582959 150.26757812 63.45385742 C153.7541999 60 153.7541999 60 156 60 C156.3403125 59.2265625 156.3403125 59.2265625 156.6875 58.4375 C157.83463939 56.30709827 159.05245472 54.55079033 160.5 52.625 C165.34971192 45.82968094 165.69916695 39.17487509 165 31 C163.35602335 23.80010227 159.7886809 18.02842636 153.6875 13.8125 C146.58959977 9.41088005 140.91170685 7.65380969 132.57421875 7.30859375 C130 7 130 7 128 5 C128.375 2.375 128.375 2.375 129 0 C140.34311468 -1.16009127 150.6326475 1.74157954 160.06640625 8.05078125 C166.87017982 13.75946161 171.21404049 19.78814082 172.55078125 28.65234375 C172.86568621 32.45017341 172.99159872 36.19001904 173 40 C173.02320313 40.84949219 173.04640625 41.69898438 173.0703125 42.57421875 C172.74982208 52.49161672 164.69866116 61.27258922 158 68 C156.65774357 69.18035001 155.30337164 70.34705892 153.9375 71.5 C142.6133075 81.18141796 136.963725 95.77767601 135.703125 110.45703125 C135.61504503 112.44127728 135.56362446 114.42786447 135.56640625 116.4140625 C134.70611902 120.34171869 133.26351429 121.67598225 130 124 C126.62514002 124.717487 123.37633751 124.69938005 119.9375 124.625 C119.03966797 124.64433594 118.14183594 124.66367187 117.21679688 124.68359375 C110.73119301 124.63537365 110.73119301 124.63537365 107.49609375 121.82421875 C105.97538445 118.95353252 104.98630837 116.3169204 104.125 113.1875 C100.92660095 103.13714605 94.80591029 96.73838598 86 91 C83.04918487 89.68348248 80.13051081 88.77462537 77 88 C75.515 87.505 75.515 87.505 74 87 C60.75394109 86.16355115 47.37164537 86.37572675 36.70703125 95.37890625 C36.14371094 95.91386719 35.58039063 96.44882812 35 97 C34.44699219 97.52464844 33.89398438 98.04929687 33.32421875 98.58984375 C29.01569702 103.13357014 27.08508094 108.17486356 25 114 C23.57482215 117.54637279 22.1312874 120.8030689 20 124 C16.5855176 124.68560702 13.10019882 124.5092672 9.625 124.5 C8.6659375 124.52835937 7.706875 124.55671875 6.71875 124.5859375 C-0.34522867 124.60561432 -0.34522867 124.60561432 -3.6015625 121.59375 C-5.80565698 117.50570884 -6.38165412 114.14049811 -6.875 109.5625 C-8.80533022 93.48179183 -13.73799071 80.02469048 -26.75 69.59765625 C-34.6022478 63.27028693 -40.70215092 54.2765221 -43.75 44.625 C-44.92531854 32.28415529 -43.07579861 22.45220626 -35.296875 12.515625 C-25.99071416 2.32316313 -13.67119464 -1.68969821 0 0 Z " fill="#EA864D" transform="translate(406,282)"/>
<path d="M0 0 C4.45963663 4.45963663 4.32568493 11.10302684 4.37109375 17.09375 C4.38463646 18.21928284 4.38463646 18.21928284 4.39845276 19.36755371 C4.41287195 20.94405171 4.42182109 22.52060841 4.42553711 24.09716797 C4.43747109 26.49419291 4.48676303 28.88867015 4.53710938 31.28515625 C4.54657186 32.82550842 4.55380773 34.3658762 4.55859375 35.90625 C4.57812607 36.6137439 4.59765839 37.32123779 4.61778259 38.0501709 C4.57295288 43.04821997 3.24637891 45.73681456 0.17176819 49.46032715 C-1.21721059 51.11347588 -1.21721059 51.11347588 -2 54 C-8.3794107 57.18970535 -16.6350672 57.00543393 -23.375 54.9375 C-27.77117498 53.05600947 -29.63610647 50.062942 -32 46 C-32 45.34 -32 44.68 -32 44 C-32.66 44 -33.32 44 -34 44 C-34.09920549 38.84055127 -34.17162646 33.68166311 -34.21972656 28.52148438 C-34.2397871 26.76780521 -34.26704251 25.01419247 -34.30175781 23.26074219 C-34.35052302 20.73355682 -34.37302392 18.20725909 -34.390625 15.6796875 C-34.41127014 14.90132538 -34.43191528 14.12296326 -34.45318604 13.3210144 C-34.45591516 6.63366498 -31.9153347 3.21000157 -27.5625 -1.8125 C-19.7063097 -8.51900391 -7.6131398 -5.52161788 0 0 Z " fill="#F1B457" transform="translate(437,472)"/>
<path d="M0 0 C2.5625 0.25 2.5625 0.25 5 1 C6.46041228 3.92082455 6.11928796 6.48301369 6.11352539 9.74462891 C6.11367142 10.43742447 6.11381744 11.13022003 6.1139679 11.8440094 C6.11327018 14.13822541 6.10548442 16.43236064 6.09765625 18.7265625 C6.09579157 20.31554113 6.0943679 21.90452034 6.09336853 23.49349976 C6.08954731 27.67909325 6.07972039 31.86465213 6.06866455 36.05023193 C6.05844194 40.31994153 6.05386909 44.5896567 6.04882812 48.859375 C6.03809778 57.23959923 6.02102608 65.61979531 6 74 C8.93048809 73.74676498 8.93048809 73.74676498 12 73 C13.68306411 70.48025361 14.83353566 68.34959929 16.015625 65.60546875 C16.35752869 64.86170486 16.69943237 64.11794098 17.05169678 63.35163879 C18.13947175 60.97275027 19.19495833 58.58105968 20.25 56.1875 C20.97445443 54.58693479 21.70099445 52.98731182 22.4296875 51.38867188 C23.76605953 48.45122379 25.08930064 45.50857262 26.39941406 42.55932617 C27.54855315 40.00391146 28.71387895 37.48754437 30 35 C31.98 35 33.96 35 36 35 C37.19132957 38.44961915 37.06177869 39.84808222 35.6640625 43.28515625 C34.9967565 44.55087634 34.31614695 45.80963907 33.625 47.0625 C32.88413218 48.46800917 32.14734742 49.87567607 31.4140625 51.28515625 C31.02250977 52.03684082 30.63095703 52.78852539 30.22753906 53.56298828 C28.00530176 57.97475694 26.00835853 62.48784483 24 67 C23.40372803 68.33623413 23.40372803 68.33623413 22.79541016 69.69946289 C21.8607644 71.79839963 20.92881986 73.89848021 20 76 C20.64573975 76.11754639 21.29147949 76.23509277 21.95678711 76.35620117 C27.0066288 77.31372795 31.77242187 78.39521971 36.5625 80.3125 C37.57441406 80.70050781 38.58632813 81.08851563 39.62890625 81.48828125 C42 83 42 83 42.96484375 85.54296875 C42.97644531 86.35378906 42.98804688 87.16460937 43 88 C42.34 88.66 41.68 89.32 41 90 C36.87697749 89.71234727 33.63896784 88.41152442 29.88500977 86.77758789 C13.48581462 80.01273405 -6.1194377 79.77455205 -23 85 C-24.69514137 85.95093297 -26.36786856 86.94457367 -28 88 C-32.13064362 89.72110151 -34.67516844 90.27200928 -39 89 C-39 87.02 -39 85.04 -39 83 C-22.96946565 76 -22.96946565 76 -16 76 C-16.78032593 74.40345581 -16.78032593 74.40345581 -17.57641602 72.7746582 C-19.50427409 68.8210418 -21.41387959 64.85883976 -23.31811523 60.89379883 C-24.14454446 59.17948919 -24.97589372 57.46754229 -25.81225586 55.75805664 C-27.014191 53.29919587 -28.19812702 50.83235738 -29.37890625 48.36328125 C-29.75592178 47.60163162 -30.13293732 46.83998199 -30.52137756 46.05525208 C-33.06157124 40.68002988 -33.06157124 40.68002988 -32.72631836 36.97729492 C-32.4866333 36.3247876 -32.24694824 35.67228027 -32 35 C-29.6875 34.75 -29.6875 34.75 -27 35 C-24.20554157 38.06110346 -22.64821657 41.63264233 -20.93359375 45.375 C-20.65403336 45.98134277 -20.37447296 46.58768555 -20.08644104 47.21240234 C-19.19898119 49.13958026 -18.31806037 51.06966126 -17.4375 53 C-16.551948 54.92965998 -15.66507213 56.85870633 -14.77784729 58.78759766 C-13.97398819 60.53708702 -13.17331077 62.28803727 -12.37280273 64.0390625 C-11.56392536 65.78369434 -10.7240994 67.51548501 -9.81665039 69.2109375 C-9 71 -9 71 -9 74 C-6.69 74 -4.38 74 -2 74 C-2.00444122 73.10241974 -2.00888245 72.20483948 -2.01345825 71.28005981 C-2.0534824 62.83362745 -2.08395758 54.38722679 -2.10362434 45.94072151 C-2.114075 41.59797251 -2.12825747 37.25530167 -2.15087891 32.91259766 C-2.17256174 28.72401025 -2.18455896 24.53549816 -2.18975449 20.34685898 C-2.19345847 18.7464161 -2.20069113 17.14597749 -2.21146011 15.54556656 C-2.22591463 13.30909468 -2.22798051 11.07293663 -2.22705078 8.83642578 C-2.231492 7.56179474 -2.23593323 6.2871637 -2.24050903 4.97390747 C-2 2 -2 2 0 0 Z " fill="#EA864D" transform="translate(469,233)"/>
<path d="M0 0 C11.45888473 8.79802011 18.30241426 20.6449905 21.31445312 34.70117188 C22.45225919 50.63045677 19.71085924 65.36717605 9.56445312 78.20117188 C7.91445313 77.87117188 6.26445312 77.54117188 4.56445312 77.20117188 C4.23051865 72.3228248 5.11463998 69.4725989 7.43945312 65.20117188 C13.71892049 53.55230489 14.53696374 41.07815795 11.06445312 28.26367188 C5.94030386 13.92329653 -3.90590663 6.15715007 -17.03320312 -0.28320312 C-28.7004975 -5.48057421 -40.43555317 -4.94882595 -52.43554688 -0.79882812 C-64.75425297 4.0892631 -73.59228575 12.54412915 -78.98242188 24.68554688 C-84.50181173 38.95381666 -83.23061895 51.4010426 -77.43554688 65.20117188 C-76.6803957 66.59655992 -75.8969798 67.97793559 -75.06054688 69.32617188 C-73.43554688 72.20117188 -73.43554688 72.20117188 -73.68554688 75.13867188 C-73.93304688 75.81929688 -74.18054688 76.49992187 -74.43554688 77.20117188 C-76.74414063 77.47460938 -76.74414063 77.47460938 -79.43554688 77.20117188 C-89.25468041 66.34236538 -91.09401038 51.07919218 -90.56738281 37.14306641 C-89.5647779 22.37506745 -80.98370293 9.93251477 -70.43554688 0.20117188 C-48.9956153 -16.58184932 -21.49178667 -15.71037038 0 0 Z " fill="#EDB257" transform="translate(505.435546875,223.798828125)"/>
<path d="M0 0 C0.80961323 0.00223072 1.61922647 0.00446144 2.45337343 0.00675976 C3.30698473 0.00519977 4.16059604 0.00363978 5.04007435 0.00203252 C7.92293436 -0.00198121 10.80574244 0.00121359 13.68860292 0.00434887 C15.74621534 0.002995 17.80382752 0.00121514 19.86143923 -0.00096118 C25.46664631 -0.00553715 31.07183507 -0.00374529 36.67704248 -0.0005821 C42.52891895 0.00194067 48.38079379 -0.0003958 54.23267031 -0.00196826 C64.06189682 -0.00379021 73.89111583 -0.00138301 83.72034121 0.00337231 C95.1021103 0.00881498 106.48386149 0.00705234 117.86563015 0.00154591 C127.618453 -0.00298453 137.37127045 -0.00363612 147.12409401 -0.00101542 C152.9574947 0.00054774 158.79088697 0.00074006 164.62428713 -0.00255191 C170.1070946 -0.00542962 175.58987886 -0.0034568 181.07268381 0.00234234 C183.09118597 0.00367049 185.10969007 0.00327492 187.12819147 0.00107968 C189.87129654 -0.00162971 192.61432599 0.0017467 195.35742617 0.00675976 C196.1670394 0.00452904 196.97665263 0.00229832 197.8107996 0 C203.29124997 0.01959357 203.29124997 0.01959357 204.4053998 1.13374341 C204.44603812 2.79991456 204.4481208 4.46762435 204.4053998 6.13374341 C201.24092239 7.71598211 197.83903435 7.27049274 194.3645215 7.26072705 C193.52371756 7.26228704 192.68291363 7.26384703 191.81663078 7.26545429 C188.98300306 7.26946125 186.14942837 7.2662758 183.31580019 7.26313794 C181.29084158 7.26449212 179.26588321 7.26627215 177.24092531 7.268448 C171.7286153 7.27302056 166.21632394 7.27123341 160.70401359 7.26806891 C154.94516829 7.26554406 149.18632463 7.26788323 143.42747927 7.26945508 C133.75385675 7.27127655 124.08024186 7.26887119 114.4066205 7.2641145 C103.21175448 7.25867346 92.01690667 7.26043348 80.82204109 7.2659409 C71.22373027 7.27047449 61.62542493 7.27112133 52.02711338 7.26850224 C46.28867907 7.26694062 40.55025332 7.26674252 34.81181955 7.27003872 C29.41681548 7.27292094 24.02183496 7.27093524 18.62683344 7.26514447 C16.64303422 7.26381869 14.65923303 7.26420791 12.67543459 7.26640713 C9.97468327 7.2691258 7.27400816 7.26572861 4.57326174 7.26072705 C3.38611286 7.26407313 3.38611286 7.26407313 2.17498118 7.26748681 C-1.01608155 7.2559663 -3.54434154 7.15049629 -6.5946002 6.13374341 C-6.6373212 4.46762435 -6.63523852 2.79991456 -6.5946002 1.13374341 C-4.80477213 -0.65608466 -2.38342439 0.00852116 0 0 Z " fill="#EE884D" transform="translate(371.5946002006531,414.8662565946579)"/>
<path d="M0 0 C2.6855594 2.6855594 3.06049974 5.37621328 4 9 C4.66 9 5.32 9 6 9 C6.67119549 10.4562545 7.33681807 11.91507867 8 13.375 C8.556875 14.59316406 8.556875 14.59316406 9.125 15.8359375 C10 18 10 18 10 20 C10.66 20 11.32 20 12 20 C14.59069779 24.31782964 16.40372786 28.21118359 18 33 C18.66 33.33 19.32 33.66 20 34 C19.99214478 32.46291382 19.99214478 32.46291382 19.98413086 30.89477539 C19.96608031 27.10604724 19.9545678 23.31732291 19.94506836 19.52856445 C19.94002826 17.88630536 19.93319622 16.24405077 19.92456055 14.60180664 C19.91248074 12.24624521 19.90676861 9.89074291 19.90234375 7.53515625 C19.89718246 6.79660904 19.89202118 6.05806183 19.88670349 5.2971344 C19.8865075 3.53101912 19.93805281 1.76502854 20 0 C21 -1 21 -1 23.9375 -1.25 C24.948125 -1.1675 25.95875 -1.085 27 -1 C29.2443195 2.36647925 29.2450516 3.45622646 29.22705078 7.3894043 C29.22689972 8.49031906 29.22674866 9.59123383 29.22659302 10.72550964 C29.21627045 11.91308365 29.20594788 13.10065765 29.1953125 14.32421875 C29.1924826 15.54075638 29.18965271 16.75729401 29.18673706 18.01069641 C29.17552603 21.90306358 29.15041948 25.79520216 29.125 29.6875 C29.11497141 32.32356439 29.10584535 34.95963238 29.09765625 37.59570312 C29.07558366 44.06388032 29.04209688 50.53192383 29 57 C26.29120665 58.35439668 23.99066732 58.06501451 21 58 C20.16180842 56.37750059 19.3295884 54.75191503 18.5 53.125 C18.0359375 52.22007812 17.571875 51.31515625 17.09375 50.3828125 C16 48 16 48 16 46 C15.34 46 14.68 46 14 46 C10.71428571 38.57142857 10.71428571 38.57142857 10 35 C9.34 35 8.68 35 8 35 C6.11304374 30.71146306 4.41807378 26.47238653 3 22 C2.34 22 1.68 22 1 22 C1.00523682 23.05501709 1.01047363 24.11003418 1.01586914 25.19702148 C1.03391901 29.0975663 1.04543195 32.9981074 1.05493164 36.89868164 C1.0599719 38.58944316 1.06680405 40.28020029 1.07543945 41.97094727 C1.08751857 44.39600707 1.09323123 46.82100944 1.09765625 49.24609375 C1.10281754 50.00651474 1.10797882 50.76693573 1.11329651 51.55039978 C1.11349238 53.3673257 1.06197277 55.18413127 1 57 C0 58 0 58 -2.9375 58.125 C-6 58 -6 58 -8 57 C-8 38.19 -8 19.38 -8 0 C-4.67679974 -1.10773342 -3.30835256 -0.93312508 0 0 Z " fill="#EFB358" transform="translate(469,469)"/>
<path d="M0 0 C4.1886694 2.94098064 6.25575912 6.25106195 7.9375 11.0625 C8.34479416 14.12422853 8.4149949 17.00653266 7.9375 20.0625 C6.9375 21.0625 6.9375 21.0625 3.875 21.125 C2.905625 21.104375 1.93625 21.08375 0.9375 21.0625 C0.525 19.825 0.1125 18.5875 -0.3125 17.3125 C-2.18611781 12.43144982 -2.18611781 12.43144982 -6.0625 9.0625 C-10.59906073 8.54766005 -14.72128952 8.61542984 -19.0625 10.0625 C-19.165625 11.3 -19.26875 12.5375 -19.375 13.8125 C-19.43300781 14.50859375 -19.49101562 15.2046875 -19.55078125 15.921875 C-18.78753454 19.26794859 -16.86342946 20.18033492 -14.0625 22.0625 C-11.64300838 23.43457315 -9.17107427 24.68625488 -6.6875 25.9375 C5.89150765 32.57273192 5.89150765 32.57273192 7.9375 36.0625 C8.85331999 41.54121072 8.10551347 46.6799046 6.9375 52.0625 C5.9475 52.3925 4.9575 52.7225 3.9375 53.0625 C3.23402589 54.24060724 2.54874659 55.42964314 1.875 56.625 C-0.50739271 59.51274874 -2.53920495 60.34074108 -6.140625 60.875 C-12.41174047 61.37737489 -17.88885935 61.54944323 -23.203125 57.9140625 C-27.32554106 53.37940483 -29.92185921 49.73467507 -30.25 43.5 C-30.0625 40.0625 -30.0625 40.0625 -28.0625 38.0625 C-25.5625 37.8125 -25.5625 37.8125 -23.0625 38.0625 C-21.0625 40.0625 -21.0625 40.0625 -20.9375 43.6875 C-20.97875 44.80125 -21.02 45.915 -21.0625 47.0625 C-20.0725 47.3925 -19.0825 47.7225 -18.0625 48.0625 C-18.0625 48.7225 -18.0625 49.3825 -18.0625 50.0625 C-15.93686897 49.94873383 -13.8119739 49.82114369 -11.6875 49.6875 C-10.50414062 49.61789062 -9.32078125 49.54828125 -8.1015625 49.4765625 C-4.95687681 49.36032654 -4.95687681 49.36032654 -3.0625 47.0625 C-2.2280408 43.6913837 -2.2280408 43.6913837 -3.0625 40.0625 C-6.23803024 37.11491623 -10.19031472 35.48042211 -14.0625 33.625 C-20.13244852 30.46356848 -27.82738413 25.76784762 -30.0625 19.0625 C-30.76248014 14.58421797 -31.02262673 10.69877232 -28.67578125 6.69921875 C-21.48877314 -1.82853274 -10.6325546 -3.4737706 0 0 Z " fill="#E5AC57" transform="translate(322.0625,467.9375)"/>
<path d="M0 0 C2.66015625 0.31640625 2.66015625 0.31640625 4.5390625 2.0390625 C5.09464844 2.81121094 5.65023437 3.58335937 6.22265625 4.37890625 C6.81304688 5.19617188 7.4034375 6.0134375 8.01171875 6.85546875 C13.66015625 15.28797023 13.66015625 15.28797023 13.66015625 18.31640625 C14.65015625 18.31640625 15.64015625 18.31640625 16.66015625 18.31640625 C17.04494141 17.01123047 17.04494141 17.01123047 17.4375 15.6796875 C18.68501978 12.24801169 20.22551898 9.55172952 22.22265625 6.50390625 C22.84269531 5.54871094 23.46273437 4.59351563 24.1015625 3.609375 C25.66015625 1.31640625 25.66015625 1.31640625 26.66015625 0.31640625 C29.59765625 0.06640625 29.59765625 0.06640625 32.66015625 0.31640625 C34.8405372 3.58697768 35.2926238 4.52160094 34.66015625 8.31640625 C33.52330296 9.4866964 32.37554355 10.64892579 31.16796875 11.74609375 C26.50183683 16.60564047 23.20999288 22.52975729 22.5625 29.2800293 C22.73088865 32.79135366 24.42374972 35.45254799 26.28515625 38.31640625 C26.65253906 38.92234619 27.01992188 39.52828613 27.3984375 40.15258789 C28.97106792 42.72914971 30.6158552 45.25100447 32.30859375 47.75 C35.33561881 52.23804583 36.22771167 54.86787423 35.66015625 60.31640625 C32.53515625 60.87890625 32.53515625 60.87890625 28.66015625 60.31640625 C25.8955316 57.34788303 22.66015625 53.51595338 22.66015625 49.31640625 C21.17515625 48.82140625 21.17515625 48.82140625 19.66015625 48.31640625 C18.07050054 46.09939478 16.93688139 43.73778152 15.66015625 41.31640625 C14.67015625 41.31640625 13.68015625 41.31640625 12.66015625 41.31640625 C12.04527344 42.425 11.43039062 43.53359375 10.796875 44.67578125 C9.98062154 46.13940814 9.16420681 47.60294509 8.34765625 49.06640625 C7.94353516 49.79601562 7.53941406 50.525625 7.12304688 51.27734375 C5.15487552 54.79765024 3.21378575 58.17602046 0.66015625 61.31640625 C-1.64984375 60.98640625 -3.95984375 60.65640625 -6.33984375 60.31640625 C-7.20647155 54.01551236 -4.25862479 50.05114953 -1.02734375 44.94140625 C-0.52783203 44.10996094 -0.02832031 43.27851563 0.48632812 42.421875 C3.29539295 37.89016512 3.29539295 37.89016512 4.66015625 36.31640625 C5.65015625 36.31640625 6.64015625 36.31640625 7.66015625 36.31640625 C8.9511521 30.5908686 9.15160742 27.40072319 6.1328125 22.2734375 C5.01940223 20.54336924 3.88193446 18.82858052 2.72265625 17.12890625 C-4.29693189 6.62697495 -4.29693189 6.62697495 -3.33984375 1.31640625 C-2.33984375 0.31640625 -2.33984375 0.31640625 0 0 Z " fill="#E9AF57" transform="translate(613.33984375,466.68359375)"/>
<path d="M0 0 C3.125 0.25 3.125 0.25 4.9375 1.5 C6.125 3.25 6.125 3.25 6.5625 5.1875 C6.98933701 7.42442385 6.98933701 7.42442385 9 9.125 C11.46814439 11.59314439 12.68909258 14.09100368 14.125 17.25 C14.785 17.25 15.445 17.25 16.125 17.25 C17.71147813 14.81700555 19.18657923 12.39338525 20.625 9.875 C21.42444371 8.49065978 22.22642466 7.1077809 23.03125 5.7265625 C23.56202148 4.799646 23.56202148 4.799646 24.10351562 3.85400391 C25.125 2.25 25.125 2.25 27.125 0.25 C29.625 0 29.625 0 32.125 0.25 C32.785 0.91 33.445 1.57 34.125 2.25 C33.75 5.875 33.75 5.875 33.125 9.25 C32.465 9.25 31.805 9.25 31.125 9.25 C30.85816406 9.97445313 30.59132813 10.69890625 30.31640625 11.4453125 C29.12951447 14.23937248 27.71465085 16.58385397 26.0625 19.125 C22.67552277 24.77825649 22.67552277 24.77825649 22.125 31.25 C23.33384391 33.56845436 24.74103624 35.59484188 26.29296875 37.69921875 C29.07191316 41.56841001 31.34397589 45.71231546 33.70703125 49.84375 C34.9155097 52.12391204 34.9155097 52.12391204 36.125 53.25 C36.16592937 55.58297433 36.16741723 57.91705225 36.125 60.25 C33.0625 60.875 33.0625 60.875 29.125 60.25 C23.42959927 54.46867728 19.83237691 46.39315111 16.125 39.25 C15.465 39.25 14.805 39.25 14.125 39.25 C12.70056616 41.35697279 12.70056616 41.35697279 11.296875 44.0625 C10.74386719 45.05507813 10.19085937 46.04765625 9.62109375 47.0703125 C8.46063265 49.18354591 7.31208328 51.303366 6.17578125 53.4296875 C5.61761719 54.42226563 5.05945313 55.41484375 4.484375 56.4375 C3.98389648 57.35917969 3.48341797 58.28085937 2.96777344 59.23046875 C1.125 61.25 1.125 61.25 -2.08496094 61.55078125 C-3.00567383 61.45152344 -3.92638672 61.35226562 -4.875 61.25 C-6.30335085 58.3932983 -6.15607891 56.42923038 -5.875 53.25 C-4.3359375 50.13671875 -4.3359375 50.13671875 -2.25 46.9375 C-1.89043213 46.37208496 -1.53086426 45.80666992 -1.16040039 45.22412109 C0.49384423 42.64140281 2.21527991 40.12672251 4.02734375 37.65234375 C4.57519531 36.90082031 5.12304688 36.14929688 5.6875 35.375 C6.43193359 34.41980469 6.43193359 34.41980469 7.19140625 33.4453125 C8.63259055 30.05641886 7.99819571 27.78418435 7.125 24.25 C5.83853716 21.84298178 4.57785171 19.6804299 3.0625 17.4375 C-0.875 11.46730769 -0.875 11.46730769 -0.875 9.25 C-1.865 8.92 -2.855 8.59 -3.875 8.25 C-3.91741723 5.91705225 -3.91592937 3.58297433 -3.875 1.25 C-2.875 0.25 -2.875 0.25 0 0 Z " fill="#EAAF57" transform="translate(551.875,466.75)"/>
<path d="M0 0 C1.13566406 -0.02191406 2.27132813 -0.04382813 3.44140625 -0.06640625 C6.4375 0.5625 6.4375 0.5625 8.09985352 2.63110352 C9.72167394 6.18525533 9.87012876 9.26319534 9.8359375 13.09375 C9.83880768 13.80728638 9.84167786 14.52082275 9.84463501 15.25598145 C9.84666884 16.7587158 9.84118669 18.26147703 9.82861328 19.76416016 C9.81254824 22.05561899 9.82848337 24.34531434 9.84765625 26.63671875 C9.8456737 28.10156637 9.84182976 29.56641289 9.8359375 31.03125 C9.84504654 32.05176453 9.84504654 32.05176453 9.8543396 33.09289551 C9.79130656 37.38666043 9.14289698 40.18879964 6.4375 43.5625 C3.44140625 44.26171875 3.44140625 44.26171875 0 44.25 C-1.13308594 44.27449219 -2.26617187 44.29898438 -3.43359375 44.32421875 C-6.5625 43.5625 -6.5625 43.5625 -8.72485352 40.99389648 C-10.78702619 37.14324723 -11.1445815 34.15684037 -11.09375 29.8984375 C-11.0975769 29.1839444 -11.10140381 28.46945129 -11.10534668 27.73330688 C-11.10805403 26.23234639 -11.10077551 24.73133776 -11.08398438 23.23046875 C-11.06249 20.93643246 -11.08385404 18.64550449 -11.109375 16.3515625 C-11.10673275 14.88801395 -11.10160988 13.42446733 -11.09375 11.9609375 C-11.10184692 11.27857025 -11.10994385 10.596203 -11.11828613 9.89315796 C-11.05285053 6.56644732 -10.75556198 4.8174793 -8.72485352 2.13549805 C-5.75572467 -0.02438647 -3.64124615 -0.00414249 0 0 Z " fill="#101D58" transform="translate(422.5625,475.4375)"/>
<path d="M0 0 C2.875 -0.1875 2.875 -0.1875 6 0 C8.14782833 3.22174249 8.24649148 4.0433731 8.22705078 7.74682617 C8.22682419 9.18798042 8.22682419 9.18798042 8.22659302 10.6582489 C8.21627045 11.69270645 8.20594788 12.727164 8.1953125 13.79296875 C8.1924826 14.85413406 8.18965271 15.91529938 8.18673706 17.00862122 C8.17553184 20.40169497 8.15042647 23.79450587 8.125 27.1875 C8.11497065 29.48632432 8.10584472 31.78515276 8.09765625 34.08398438 C8.07559141 39.72274611 8.04211044 45.36135428 8 51 C8.72179443 50.99476318 9.44358887 50.98952637 10.18725586 50.98413086 C13.43732849 50.96342642 16.68738728 50.95036082 19.9375 50.9375 C21.07380859 50.92912109 22.21011719 50.92074219 23.38085938 50.91210938 C24.46044922 50.90888672 25.54003906 50.90566406 26.65234375 50.90234375 C28.15269165 50.89448853 28.15269165 50.89448853 29.68334961 50.88647461 C32 51 32 51 33 52 C33.23529412 57.52941176 33.23529412 57.52941176 32 60 C27.6217488 60.02469081 23.24353433 60.04285557 18.86523438 60.05493164 C17.37531834 60.05996514 15.88540726 60.06679242 14.39550781 60.07543945 C12.25584696 60.08754805 10.11625132 60.09323807 7.9765625 60.09765625 C6.68830566 60.10289307 5.40004883 60.10812988 4.07275391 60.11352539 C1 60 1 60 -1 59 C-1.0231666 51.75032602 -1.04093714 44.50066003 -1.05181217 37.25095654 C-1.05703154 33.8846576 -1.06411203 30.51838398 -1.07543945 27.15209961 C-1.08753899 23.28238245 -1.09323604 19.41270134 -1.09765625 15.54296875 C-1.10281754 14.33352097 -1.10797882 13.12407318 -1.11329651 11.87797546 C-1.11337204 10.75703995 -1.11344757 9.63610443 -1.11352539 8.48120117 C-1.115746 7.49302902 -1.11796661 6.50485687 -1.12025452 5.48674011 C-1 3 -1 3 0 0 Z " fill="#ECB157" transform="translate(351,467)"/>
<path d="M0 0 C5.63135874 2.93148287 10.56594467 7.02993983 13.1875 12.9375 C15.13618955 20.36318822 14.73689411 26.79843594 10.97265625 33.50390625 C10 35 10 35 9 36 C7.33382885 36.04063832 5.66611905 36.042721 4 36 C3.85478115 32.87779468 3.775997 30.53200712 5 27.625 C6.62315117 23.36422819 6.55043554 19.20174218 5.4375 14.75 C2.26161704 10.8837077 -1.10399452 9.32234631 -5.91796875 8.50390625 C-10.02344793 8.25400752 -13.47753204 8.0750289 -17.0703125 10.2578125 C-20.52686284 13.84794933 -22.04120676 17.7676483 -22.3125 22.71875 C-21.6279838 27.71571827 -18.47697751 31.52302249 -15 35 C-14.154375 35.268125 -13.30875 35.53625 -12.4375 35.8125 C-11.633125 36.204375 -10.82875 36.59625 -10 37 C-9.125 39.5625 -9.125 39.5625 -9 42 C-10 43 -10 43 -13.125 43.375 C-17.94837613 42.90822167 -20.72679684 41.44508369 -24 38 C-28.47489516 31.95790588 -30.9855699 26.22730074 -30.51953125 18.640625 C-29.07075616 11.27692605 -25.02036826 6.22706707 -19 2 C-13.32158372 -1.53946127 -6.36304117 -1.03407349 0 0 Z " fill="#E9864D" transform="translate(408,297)"/>
<path d="M0 0 C0 0.66 0 1.32 0 2 C1.3303125 2.37125 1.3303125 2.37125 2.6875 2.75 C7.90712903 4.71967133 11.62389278 7.65761258 14.26171875 12.68359375 C16.16558235 18.6570917 16.48279982 25.79301434 13.82421875 31.54296875 C11.10951835 35.28181969 7.85152547 38.43231635 4 41 C3.34 41 2.68 41 2 41 C2 41.66 2 42.32 2 43 C0.00045254 43.04254356 -2.00041636 43.04080783 -4 43 C-5 42 -5 42 -5.33203125 39.625 C-5 37 -5 37 -3.13671875 35.375 C-1.92435547 34.694375 -1.92435547 34.694375 -0.6875 34 C4.25827706 30.98014863 4.25827706 30.98014863 7 26 C7.51379947 21.23879157 7.67582785 17.13064688 5 13 C3.30272775 11.68789995 3.30272775 11.68789995 1.375 10.75 C-0.295625 9.88375 -0.295625 9.88375 -2 9 C-2 8.34 -2 7.68 -2 7 C-10.09051431 7.26243968 -10.09051431 7.26243968 -17 11 C-20.49727901 15.94442895 -20.74549479 21.13285916 -20 27 C-19.34513223 28.33916781 -18.67995496 29.673394 -18 31 C-18.375 33.75 -18.375 33.75 -19 36 C-20.65 36 -22.3 36 -24 36 C-27.82157057 29.46634708 -29.87292065 24.68655129 -29 17 C-27.30676977 11.31295499 -24.79385601 6.62202454 -20 3 C-13.49581908 -0.24552058 -7.14603414 -0.36064098 0 0 Z " fill="#EC874D" transform="translate(548,297)"/>
<path d="M0 0 C3.3792573 2.03005291 6.22397384 4.44794768 8 8 C8.31468702 11.13850509 8.32396841 14.2851394 8.375 17.4375 C8.41238281 18.30955078 8.44976562 19.18160156 8.48828125 20.08007812 C8.52156176 22.48551975 8.4938503 24.64466947 8 27 C5.6640625 28.97265625 5.6640625 28.97265625 3 30 C2.01 30.66 1.02 31.32 0 32 C-3.06540892 32.54534428 -5.93334783 32.53895469 -9 32 C-12.09632649 29.56246638 -13.82300487 27.26549269 -16 24 C-16.27541564 21.17916404 -16.41592043 18.50962845 -16.4375 15.6875 C-16.47037109 14.94048828 -16.50324219 14.19347656 -16.53710938 13.42382812 C-16.57679473 9.31458949 -16.23378445 6.76407125 -13.59765625 3.51953125 C-9.42845141 -0.52428397 -5.66353611 -1.00705618 0 0 Z " fill="#0A1757" transform="translate(341,556)"/>
<path d="M0 0 C0.042721 1.66611905 0.04063832 3.33382885 0 5 C-1 6 -1 6 -4 6.3125 C-7.12585064 6.27468729 -9.21177414 5.57105147 -12 4.1875 C-27.49584552 -3.09399263 -48.92461541 -3.50824636 -65.33203125 1 C-68.8321649 2.31190954 -71.96721841 3.97483117 -75.09765625 6.01171875 C-77 7 -77 7 -81 7 C-81.625 3.625 -81.625 3.625 -82 0 C-63.77833853 -18.22166147 -19.55405691 -12.09264046 0 0 Z " fill="#DE814E" transform="translate(512,336)"/>
<path d="M0 0 C2.5 0.25 2.5 0.25 4.5 2.25 C4.74723816 4.64772034 4.74723816 4.64772034 4.74291992 7.69360352 C4.74599655 8.83140762 4.74907318 9.96921173 4.75224304 11.14149475 C4.74505753 12.37484055 4.73787201 13.60818634 4.73046875 14.87890625 C4.72978142 16.76886574 4.72978142 16.76886574 4.7290802 18.69700623 C4.72605464 21.36446525 4.71922585 24.0315807 4.70581055 26.69897461 C4.68880341 30.12464028 4.68499669 33.5501586 4.68575573 36.97586155 C4.6854191 40.23522445 4.67658533 43.49455623 4.66796875 46.75390625 C4.66685593 47.98927628 4.6657431 49.2246463 4.66459656 50.49745178 C4.65821671 51.63210373 4.65183685 52.76675568 4.64526367 53.93579102 C4.64145187 54.94013687 4.63764008 55.94448273 4.63371277 56.97926331 C4.5 59.25 4.5 59.25 3.5 60.25 C0.5625 60.4375 0.5625 60.4375 -2.5 60.25 C-5.1080523 57.6419477 -4.75291786 56.5461806 -4.75878906 52.9140625 C-4.76509338 51.79950684 -4.77139771 50.68495117 -4.77789307 49.53662109 C-4.7738446 48.32828613 -4.76979614 47.11995117 -4.765625 45.875 C-4.76753845 44.63959473 -4.7694519 43.40418945 -4.77142334 42.13134766 C-4.7731361 38.84408593 -4.76506699 35.55701213 -4.75390625 32.26977539 C-4.75000397 30.2520547 -4.75389171 28.23450799 -4.76074219 26.21679688 C-4.77306004 22.35278172 -4.77160978 18.48902572 -4.765625 14.625 C-4.76967346 13.41666504 -4.77372192 12.20833008 -4.77789307 10.96337891 C-4.77158875 9.84882324 -4.76528442 8.73426758 -4.75878906 7.5859375 C-4.75719788 6.60157715 -4.75560669 5.6172168 -4.75396729 4.60302734 C-4.38565753 1.19060779 -3.38877243 0.33887724 0 0 Z " fill="#EBB058" transform="translate(521.5,466.75)"/>
<path d="M0 0 C15 0 15 0 18.9375 2 C21.23557863 5.34265983 21.75659967 7.10781017 21.48046875 11.078125 C20.75793692 13.96825231 18.91442501 15.77679676 17 18 C17.37411454 21.2200573 18.78650352 23.46353519 20.5625 26.125 C23 29.78470255 23 29.78470255 23 32 C21.35 32 19.7 32 18 32 C16.28232318 28.01811282 14.58962659 24.03520597 13 20 C10.03 20 7.06 20 4 20 C4 23.96 4 27.92 4 32 C2.68 32 1.36 32 0 32 C0 21.44 0 10.88 0 0 Z " fill="#D37B4E" transform="translate(642,556)"/>
<path d="M0 0 C4.55555556 0.55555556 4.55555556 0.55555556 6 2 C6.10859534 3.45707005 6.14902117 4.91931005 6.16113281 6.38037109 C6.17074036 7.31158783 6.1803479 8.24280457 6.19024658 9.20223999 C6.19449646 10.21573517 6.19874634 11.22923035 6.203125 12.2734375 C6.20882507 13.30812164 6.21452515 14.34280579 6.22039795 15.40884399 C6.22986433 17.60295585 6.2363884 19.79708203 6.24023438 21.99121094 C6.24993872 25.35376727 6.28094657 28.71571233 6.3125 32.078125 C6.31902976 34.20572552 6.32428034 36.33333043 6.328125 38.4609375 C6.3404718 39.47038422 6.3528186 40.47983093 6.36553955 41.51986694 C6.36253845 42.457388 6.35953735 43.39490906 6.35644531 44.36083984 C6.36009094 45.18611176 6.36373657 46.01138367 6.36749268 46.86166382 C5.91371931 49.50204299 5.13176756 50.41900841 3 52 C0.86254078 51.74853421 -0.45925779 51.54074221 -2 50 C-2.10350194 48.50678703 -2.13850739 47.00874343 -2.14526367 45.51196289 C-2.15164352 44.55749771 -2.15802338 43.60303253 -2.16459656 42.61964417 C-2.16570938 41.58113815 -2.1668222 40.54263214 -2.16796875 39.47265625 C-2.17129715 38.41340439 -2.17462555 37.35415253 -2.17805481 36.26280212 C-2.18312869 34.01740962 -2.18546299 31.77200955 -2.18530273 29.52661133 C-2.18748841 26.08076622 -2.20563721 22.63524148 -2.22460938 19.18945312 C-2.22754329 17.01302193 -2.2295281 14.83658921 -2.23046875 12.66015625 C-2.23765427 11.62367447 -2.24483978 10.58719269 -2.25224304 9.51930237 C-2.24916641 8.56168503 -2.24608978 7.60406769 -2.24291992 6.61743164 C-2.24434494 5.77217422 -2.24576996 4.92691681 -2.24723816 4.05604553 C-2 2 -2 2 0 0 Z " fill="#E4AB57" transform="translate(469,153)"/>
<path d="M0 0 C4.46263862 -0.34949867 4.46263862 -0.34949867 6.81611633 1.18119812 C7.37348984 1.73459366 7.93086334 2.2879892 8.50512695 2.8581543 C9.14541336 3.4826799 9.78569977 4.10720551 10.44538879 4.75065613 C11.1195433 5.43493179 11.79369781 6.11920746 12.48828125 6.82421875 C13.19147995 7.52263382 13.89467865 8.22104889 14.6191864 8.94062805 C16.10197179 10.42001229 17.5784668 11.90572433 19.04907227 13.3972168 C21.30418553 15.67908688 23.58469167 17.93308956 25.86914062 20.18554688 C27.30629342 21.62600372 28.7418944 23.06801083 30.17578125 24.51171875 C30.86005692 25.18587326 31.54433258 25.86002777 32.24934387 26.55461121 C32.87386948 27.19489761 33.49839508 27.83518402 34.1418457 28.49487305 C34.69524124 29.05224655 35.24863678 29.60962006 35.81880188 30.18388367 C37.37382795 32.57476814 37.28774616 34.20358369 37 37 C36 38 36 38 33.7578125 38.35229492 C29.88315928 37.85732993 28.57346792 36.14355907 25.875 33.36328125 C25.40562012 32.88682663 24.93624023 32.41037201 24.45263672 31.91947937 C22.95625103 30.39517952 21.47814064 28.8544782 20 27.3125 C19.00637868 26.29377905 18.0115977 25.27618783 17.015625 24.25976562 C15.17227239 22.37570462 13.33767701 20.48444775 11.5078125 18.5871582 C9.03066369 16.03163387 6.52240025 13.51078998 4 11 C2.0451884 9.03574486 0.62778577 7.29805049 -1 5 C-0.8125 2.125 -0.8125 2.125 0 0 Z " fill="#E8AE57" transform="translate(390,186)"/>
<path d="M0 0 C0.67628479 2.27519226 0.67628479 2.27519226 1 5 C-0.09217834 6.8540802 -0.09217834 6.8540802 -1.82055664 8.59692383 C-2.46195084 9.25723099 -3.10334503 9.91753815 -3.76417542 10.59785461 C-4.82643593 11.64189705 -4.82643593 11.64189705 -5.91015625 12.70703125 C-6.98963783 13.79512337 -6.98963783 13.79512337 -8.09092712 14.90519714 C-9.61794018 16.4362953 -11.1525651 17.95983364 -12.6940918 19.47631836 C-15.05015382 21.80032181 -17.37259557 24.15447912 -19.69335938 26.51367188 C-21.18037209 27.99671887 -22.66924542 29.47790309 -24.16015625 30.95703125 C-25.20116234 32.01625542 -25.20116234 32.01625542 -26.26319885 33.09687805 C-31.20727468 37.90001513 -31.20727468 37.90001513 -35.48999023 38.44018555 C-36.31829346 38.29492432 -37.14659668 38.14966309 -38 38 C-38.22743348 35.19341859 -38.35452366 33.53915337 -36.78083801 31.1459198 C-36.20967758 30.5707814 -35.63851715 29.99564301 -35.05004883 29.40307617 C-34.40550247 28.74276901 -33.76095612 28.08246185 -33.09687805 27.40214539 C-32.39072861 26.7061171 -31.68457916 26.01008881 -30.95703125 25.29296875 C-30.23642014 24.56757401 -29.51580902 23.84217926 -28.77336121 23.09480286 C-27.24689887 21.56493902 -25.71410789 20.04136757 -24.17553711 18.52368164 C-21.8212522 16.19615273 -19.49479516 13.84319395 -17.16992188 11.48632812 C-15.6838922 10.0036025 -14.19631224 8.52242865 -12.70703125 7.04296875 C-12.01100296 6.33681931 -11.31497467 5.63066986 -10.59785461 4.90312195 C-9.93754745 4.25857559 -9.2772403 3.61402924 -8.59692383 2.94995117 C-7.73421623 2.09321053 -7.73421623 2.09321053 -6.8540802 1.21916199 C-4.46084663 -0.35452366 -2.80658141 -0.22743348 0 0 Z " fill="#EEB257" transform="translate(552,186)"/>
<path d="M0 0 C1.40144005 -0.00945648 1.40144005 -0.00945648 2.83119202 -0.019104 C4.34065651 -0.01303131 4.34065651 -0.01303131 5.88061523 -0.00683594 C6.91484116 -0.00874939 7.94906708 -0.01066284 9.01463318 -0.01263428 C11.20100142 -0.01399549 13.38737775 -0.0103035 15.57373047 -0.00195312 C18.92946415 0.00875796 22.28466376 -0.00185632 25.64038086 -0.01464844 C27.76212684 -0.01332704 29.88387248 -0.01076507 32.00561523 -0.00683594 C33.01394913 -0.0108844 34.02228302 -0.01493286 35.06117249 -0.019104 C35.99231369 -0.01279968 36.9234549 -0.00649536 37.8828125 0 C38.70427261 0.00159119 39.52573273 0.00318237 40.37208557 0.00482178 C42.37670898 0.25878906 42.37670898 0.25878906 44.37670898 2.25878906 C44.04670898 3.90878906 43.71670898 5.55878906 43.37670898 7.25878906 C26.87670898 7.25878906 10.37670898 7.25878906 -6.62329102 7.25878906 C-6.95329102 5.60878906 -7.28329102 3.95878906 -7.62329102 2.25878906 C-4.44069878 0.13706091 -3.64652277 0.00705656 0 0 Z " fill="#ECB157" transform="translate(363.623291015625,263.7412109375)"/>
<path d="M0 0 C0.95446518 -0.00315216 1.90893036 -0.00630432 2.89231873 -0.009552 C3.93082474 -0.00752777 4.96933075 -0.00550354 6.03930664 -0.00341797 C7.62818443 -0.00485306 7.62818443 -0.00485306 9.24916077 -0.00631714 C11.4945583 -0.00699917 13.73995779 -0.00514331 15.98535156 -0.00097656 C19.43111589 0.00436608 22.87674955 -0.00091809 26.32250977 -0.00732422 C28.49894235 -0.00666334 30.67537485 -0.00538197 32.85180664 -0.00341797 C33.88828842 -0.0054422 34.9247702 -0.00746643 35.99266052 -0.009552 C36.95027786 -0.00639984 37.9078952 -0.00324768 38.89453125 0 C39.73978867 0.00079559 40.58504608 0.00159119 41.45591736 0.00241089 C43.51196289 0.12939453 43.51196289 0.12939453 45.51196289 1.12939453 C45.55468389 2.79551358 45.55260121 4.46322338 45.51196289 6.12939453 C43.89787039 7.74348703 42.14719881 7.25673771 39.91625977 7.25878906 C38.44968933 7.2635173 38.44968933 7.2635173 36.95349121 7.26834106 C35.88997437 7.26631683 34.82645752 7.2642926 33.73071289 7.26220703 C32.10498352 7.26364212 32.10498352 7.26364212 30.44641113 7.2651062 C28.14973899 7.26578818 25.85306494 7.26393264 23.55639648 7.25976562 C20.02721861 7.25441765 16.49816802 7.25971003 12.96899414 7.26611328 C10.74373344 7.2654525 8.51847282 7.26417135 6.29321289 7.26220703 C5.22969604 7.26423126 4.1661792 7.26625549 3.07043457 7.26834106 C2.09272095 7.2651889 1.11500732 7.26203674 0.10766602 7.25878906 C-0.7575769 7.25799347 -1.62281982 7.25719788 -2.51428223 7.25637817 C-4.48803711 7.12939453 -4.48803711 7.12939453 -5.48803711 6.12939453 C-5.61303711 3.62939453 -5.61303711 3.62939453 -5.48803711 1.12939453 C-3.88987011 -0.46877247 -2.21277213 0.00208472 0 0 Z " fill="#EEB257" transform="translate(539.488037109375,263.87060546875)"/>
<path d="M0 0 C0.66 0 1.32 0 2 0 C3.27230998 3.16607532 4.54257353 6.33296797 5.8125 9.5 C6.34713867 10.8303125 6.34713867 10.8303125 6.89257812 12.1875 C7.93510896 14.78904484 8.96826798 17.39415702 10 20 C10.30728027 20.75925781 10.61456055 21.51851562 10.93115234 22.30078125 C12.31076038 25.79805924 13 28.18550115 13 32 C12.01 32 11.02 32 10 32 C9.01 29.36 8.02 26.72 7 24 C2.71 23.67 -1.58 23.34 -6 23 C-6.66 25.97 -7.32 28.94 -8 32 C-9.32 32 -10.64 32 -12 32 C-11.35001222 28.2793803 -10.3261353 24.90282263 -9.00390625 21.3671875 C-8.41319336 19.78744141 -8.41319336 19.78744141 -7.81054688 18.17578125 C-7.39869141 17.08652344 -6.98683594 15.99726562 -6.5625 14.875 C-6.15451172 13.77800781 -5.74652344 12.68101562 -5.32617188 11.55078125 C-4.73352539 9.97490234 -4.73352539 9.97490234 -4.12890625 8.3671875 C-3.76869385 7.40925293 -3.40848145 6.45131836 -3.03735352 5.46435547 C-2 3 -2 3 0 0 Z " fill="#B66D50" transform="translate(431,556)"/>
<path d="M0 0 C0.99 0 1.98 0 3 0 C4.62573242 2.11132812 4.62573242 2.11132812 6.35546875 5.03125 C6.97744141 6.06894531 7.59941406 7.10664062 8.24023438 8.17578125 C8.88283203 9.27277344 9.52542969 10.36976563 10.1875 11.5 C10.84169922 12.59699219 11.49589844 13.69398438 12.16992188 14.82421875 C13.78976154 17.5436576 15.39613947 20.27110652 17 23 C17.33 15.74 17.66 8.48 18 1 C19.32 1 20.64 1 22 1 C22 11.23 22 21.46 22 32 C20.68 32 19.36 32 18 32 C16.58374023 30.42700195 16.58374023 30.42700195 15.30859375 28.23828125 C14.83873047 27.44873047 14.36886719 26.65917969 13.88476562 25.84570312 C13.40716797 25.00974609 12.92957031 24.17378906 12.4375 23.3125 C11.71530273 22.08756836 11.71530273 22.08756836 10.97851562 20.83789062 C10.07466778 19.30246821 9.1767732 17.76351427 8.28686523 16.2199707 C6.88318619 13.79848455 5.4400285 11.4000475 4 9 C3.67 16.59 3.34 24.18 3 32 C2.01 32 1.02 32 0 32 C0 21.44 0 10.88 0 0 Z " fill="#E4834D" transform="translate(469,556)"/>
<path d="M0 0 C0.66 0 1.32 0 2 0 C2.84384675 1.41042956 3.67469496 2.82864132 4.5 4.25 C5.19609375 5.43335938 5.19609375 5.43335938 5.90625 6.640625 C7 9 7 9 7 13 C7.66 13 8.32 13 9 13 C13 19.5 13 19.5 13 24 C13.66 24 14.32 24 15 24 C15.66 25.98 16.32 27.96 17 30 C11.72 30 6.44 30 1 30 C0.67 30.99 0.34 31.98 0 33 C0 22.11 0 11.22 0 0 Z " fill="#182358" transform="translate(470,491)"/>
<path d="M0 0 C3.3792573 2.03005291 6.22397384 4.44794768 8 8 C8.31468702 11.13850509 8.32396841 14.2851394 8.375 17.4375 C8.41238281 18.30955078 8.44976562 19.18160156 8.48828125 20.08007812 C8.52156176 22.48551975 8.4938503 24.64466947 8 27 C5.6640625 28.97265625 5.6640625 28.97265625 3 30 C2.01 30.66 1.02 31.32 0 32 C-3.06540892 32.54534428 -5.93334783 32.53895469 -9 32 C-12.09632649 29.56246638 -13.82300487 27.26549269 -16 24 C-16.27541564 21.17916404 -16.41592043 18.50962845 -16.4375 15.6875 C-16.47037109 14.94048828 -16.50324219 14.19347656 -16.53710938 13.42382812 C-16.57679473 9.31458949 -16.23378445 6.76407125 -13.59765625 3.51953125 C-9.42845141 -0.52428397 -5.66353611 -1.00705618 0 0 Z M-12 6 C-13.55743688 9.11487377 -13.26686231 12.39575809 -13.3125 15.8125 C-13.34150391 16.52470703 -13.37050781 17.23691406 -13.40039062 17.97070312 C-13.44413034 21.60782834 -13.10932205 23.813047 -11.26171875 26.97265625 C-8.76092989 29.21429601 -7.80490922 29.68159091 -4.5 29.625 C-3.7471875 29.63789062 -2.994375 29.65078125 -2.21875 29.6640625 C1.21055035 28.6376874 2.20303016 27.05884199 4 24 C4.60662971 21.14855079 4.65010887 18.4076069 4.625 15.5 C4.65722656 14.75363281 4.68945312 14.00726562 4.72265625 13.23828125 C4.72817502 10.12017467 4.67598336 7.89704963 2.76074219 5.35546875 C-2.86782089 0.31919933 -6.45278153 1.80876827 -12 6 Z " fill="#C1714F" transform="translate(341,556)"/>
<path d="M0 0 C0.66 0.66 1.32 1.32 2 2 C1.95703125 4.46875 1.95703125 4.46875 1 7 C-1.30078125 8.40625 -1.30078125 8.40625 -4.3125 9.5 C-5.39402344 9.90734375 -6.47554687 10.3146875 -7.58984375 10.734375 C-8.71519531 11.15203125 -9.84054687 11.5696875 -11 12 C-13.12808501 12.90948171 -15.25323245 13.82587596 -17.375 14.75 C-21.25388216 16.43832887 -24.7796978 17.53783434 -29 18 C-30 17 -30 17 -30.5625 14.75 C-30 12 -30 12 -28.6015625 10.69921875 C-23.89284475 7.59530889 -18.86400765 5.72071255 -13.546875 3.9140625 C-10.80399192 2.99356135 -10.80399192 2.99356135 -7.625 1.25 C-4.7910704 -0.09949029 -3.09633907 -0.43004709 0 0 Z " fill="#E7854E" transform="translate(559,228)"/>
<path d="M0 0 C2.45996094 0.06982422 2.45996094 0.06982422 5 1 C6.46972656 3.11376953 6.46972656 3.11376953 7.640625 5.8828125 C8.07117188 6.88570312 8.50171875 7.88859375 8.9453125 8.921875 C9.37585938 9.97890625 9.80640625 11.0359375 10.25 12.125 C10.69601562 13.15882813 11.14203125 14.19265625 11.6015625 15.2578125 C15.8467 25.34323008 15.8467 25.34323008 16 31 C15.34 31.66 14.68 32.32 14 33 C12.0234375 32.8828125 12.0234375 32.8828125 10 32 C6.2392993 26.80884873 4.16248609 20.11619547 1.75 14.1875 C1.4917041 13.55376465 1.2334082 12.9200293 0.96728516 12.26708984 C-0.37065228 8.8914942 -1.66098344 5.63138897 -2 2 C-1.34 1.34 -0.68 0.68 0 0 Z " fill="#E9864D" transform="translate(433,177)"/>
<path d="M0 0 C6.20154836 0.86462567 11.95266955 3.49367116 17.75 5.75 C19.49216797 6.39582031 19.49216797 6.39582031 21.26953125 7.0546875 C22.37167969 7.48523438 23.47382813 7.91578125 24.609375 8.359375 C25.61967773 8.74577148 26.62998047 9.13216797 27.67089844 9.53027344 C30 11 30 11 30.96191406 13.54003906 C30.97448242 14.35182617 30.98705078 15.16361328 31 16 C30.34 16.66 29.68 17.32 29 18 C23.49682377 17.8853505 19.65224654 15.95539439 14.84375 13.41015625 C9.72840689 10.87356441 4.35301832 8.97172305 -1 7 C-1.04254356 5.00045254 -1.04080783 2.99958364 -1 1 C-0.67 0.67 -0.34 0.34 0 0 Z " fill="#E7854E" transform="translate(382,228)"/>
<path d="M0 0 C2.88530023 1.56330813 5.03816789 3.365716 7 6 C7.4375 8.875 7.4375 8.875 7 11 C3.21360875 9.73786958 2.95895404 8.34654649 1 5 C-1.89461901 2.63860698 -1.89461901 2.63860698 -5.5625 3.1875 C-9.25825752 3.64839762 -9.25825752 3.64839762 -11 7 C-11.24811058 9.85904164 -11.37019957 12.57884378 -11.375 15.4375 C-11.39949219 16.20126953 -11.42398437 16.96503906 -11.44921875 17.75195312 C-11.46856123 21.4560375 -11.39087296 23.42253383 -9.2734375 26.55078125 C-6.53817233 28.2943953 -5.40396479 28.30658202 -2.25 27.75 C-1.45078125 27.62109375 -0.6515625 27.4921875 0.171875 27.359375 C0.77515625 27.24078125 1.3784375 27.1221875 2 27 C2.66 25.02 3.32 23.04 4 21 C1.69 21 -0.62 21 -3 21 C-3 20.01 -3 19.02 -3 18 C0.3 18 3.6 18 7 18 C7 22.29 7 26.58 7 31 C6.01 31 5.02 31 4 31 C4 30.34 4 29.68 4 29 C3.43152344 29.32226562 2.86304688 29.64453125 2.27734375 29.9765625 C-1.43123641 31.64319715 -5.01331486 31.58983042 -9 31 C-12.49890004 28.88608123 -13.70578686 27.88263941 -15 24 C-15.27320187 21.04640515 -15.27714771 18.08987901 -15.3125 15.125 C-15.34150391 14.32191406 -15.37050781 13.51882813 -15.40039062 12.69140625 C-15.4441877 8.60143356 -15.33681591 6.53473866 -13.10546875 2.9921875 C-9.19558613 -0.70733038 -5.19081915 -0.8961349 0 0 Z " fill="#D97E4E" transform="translate(388,556)"/>
<path d="M0 0 C2.5 0.125 2.5 0.125 3.5 1.125 C3.01087005 12.13042379 -3.56198829 22.5544206 -8.5 32.125 C-10.15 31.795 -11.8 31.465 -13.5 31.125 C-13.12887559 25.27979052 -12.22620626 20.86765215 -9.68359375 15.60546875 C-7.79827706 11.65439251 -6.20354509 7.58384741 -4.55078125 3.53125 C-3.07588582 0.15379429 -3.07588582 0.15379429 0 0 Z " fill="#EC874D" transform="translate(506.5,177.875)"/>
<path d="M0 0 C0.99 0 1.98 0 3 0 C3 4.95 3 9.9 3 15 C7.95 15 12.9 15 18 15 C18 10.38 18 5.76 18 1 C18.99 0.67 19.98 0.34 21 0 C21 10.56 21 21.12 21 32 C20.01 32 19.02 32 18 32 C18 27.38 18 22.76 18 18 C13.05 18 8.1 18 3 18 C3 22.62 3 27.24 3 32 C2.01 32 1.02 32 0 32 C0 21.44 0 10.88 0 0 Z " fill="#D17A4E" transform="translate(553,556)"/>
<path d="M0 0 C1.18613892 0.00785522 1.18613892 0.00785522 2.39624023 0.01586914 C3.67724609 0.02070312 3.67724609 0.02070312 4.98413086 0.02563477 C5.88196289 0.03401367 6.77979492 0.04239258 7.70483398 0.05102539 C8.6065332 0.05553711 9.50823242 0.06004883 10.43725586 0.06469727 C12.67234712 0.07652315 14.90730835 0.09300319 17.14233398 0.11352539 C17.14233398 1.10352539 17.14233398 2.09352539 17.14233398 3.11352539 C11.53233398 3.11352539 5.92233398 3.11352539 0.14233398 3.11352539 C0.14233398 7.07352539 0.14233398 11.03352539 0.14233398 15.11352539 C4.10233398 15.11352539 8.06233398 15.11352539 12.14233398 15.11352539 C12.14233398 16.10352539 12.14233398 17.09352539 12.14233398 18.11352539 C8.18233398 18.11352539 4.22233398 18.11352539 0.14233398 18.11352539 C0.14233398 22.07352539 0.14233398 26.03352539 0.14233398 30.11352539 C5.75233398 30.11352539 11.36233398 30.11352539 17.14233398 30.11352539 C17.14233398 30.77352539 17.14233398 31.43352539 17.14233398 32.11352539 C10.54233398 32.11352539 3.94233398 32.11352539 -2.85766602 32.11352539 C-2.88057839 27.71689506 -2.90050435 23.32047052 -2.91259766 18.92382812 C-2.91763722 17.42707621 -2.92446889 15.93032923 -2.93310547 14.43359375 C-2.9451876 12.28652732 -2.95089793 10.13952577 -2.95532227 7.99243164 C-2.96055908 6.69893799 -2.9657959 5.40544434 -2.97119141 4.07275391 C-2.82156265 0.17243089 -2.82156265 0.17243089 0 0 Z " fill="#C3734F" transform="translate(690.857666015625,555.886474609375)"/>
<path d="M0 0 C6.27 0 12.54 0 19 0 C19 0.99 19 1.98 19 3 C13.72 3 8.44 3 3 3 C3 6.96 3 10.92 3 15 C6.63 15 10.26 15 14 15 C13.67 15.99 13.34 16.98 13 18 C9.7 18 6.4 18 3 18 C3 21.96 3 25.92 3 30 C8.28 30 13.56 30 19 30 C19 30.66 19 31.32 19 32 C12.73 32 6.46 32 0 32 C0 21.44 0 10.88 0 0 Z " fill="#CC774E" transform="translate(599,556)"/>
<path d="M0 0 C3.11285051 0.67804665 4.85485066 2.11333764 6.97265625 4.4296875 C6.97265625 5.4196875 6.97265625 6.4096875 6.97265625 7.4296875 C3.09765625 5.5546875 3.09765625 5.5546875 1.97265625 4.4296875 C-1.52734375 4.26302083 -1.52734375 4.26302083 -5.02734375 4.4296875 C-6.32367996 5.49613865 -6.32367996 5.49613865 -6.08984375 7.9921875 C-6.06921875 8.7965625 -6.04859375 9.6009375 -6.02734375 10.4296875 C-5.26808594 10.82800781 -4.50882813 11.22632813 -3.7265625 11.63671875 C-2.23576172 12.43142578 -2.23576172 12.43142578 -0.71484375 13.2421875 C0.27128906 13.76425781 1.25742188 14.28632812 2.2734375 14.82421875 C4.62183042 16.22101975 6.30948656 17.2841986 7.97265625 19.4296875 C8.52029003 23.65429095 8.44592925 25.70400223 6.09765625 29.3046875 C3.25432922 32.14801453 1.64002941 32.61560571 -2.27734375 32.7421875 C-6.87513579 32.69762086 -9.5428958 31.55675618 -13.02734375 28.4296875 C-13.02734375 27.4396875 -13.02734375 26.4496875 -13.02734375 25.4296875 C-10.16009689 26.00313687 -9.16589225 26.291139 -7.02734375 28.4296875 C-4.88748055 28.7480715 -4.88748055 28.7480715 -2.52734375 28.6796875 C-1.73328125 28.68484375 -0.93921875 28.69 -0.12109375 28.6953125 C2.19158376 28.61908659 2.19158376 28.61908659 3.97265625 26.4296875 C4.62932033 23.50452021 4.62932033 23.50452021 3.97265625 20.4296875 C1.41805854 18.24293702 1.41805854 18.24293702 -1.90234375 16.6796875 C-7.95271688 13.50431437 -7.95271688 13.50431437 -10.02734375 11.4296875 C-10.51619126 7.7633312 -10.24701593 5.85072584 -8.52734375 2.5546875 C-5.65080156 0.10962664 -3.75626639 -0.23871599 0 0 Z " fill="#D47B4E" transform="translate(247.02734375,555.5703125)"/>
<path d="M0 0 C1.5675 -0.061875 3.135 -0.12375 4.75 -0.1875 C6.07257812 -0.23970703 6.07257812 -0.23970703 7.421875 -0.29296875 C10.51154243 0.05812982 11.81104056 0.81604962 14 3 C14.5625 6.4375 14.5625 6.4375 14 10 C12.0625 12.4375 12.0625 12.4375 9 14 C5.91524935 14.3146652 3.11635109 14.18605081 0 14 C0 9.38 0 4.76 0 0 Z " fill="#101A57" transform="translate(646,559)"/>
<path d="M0 0 C0.99 0 1.98 0 3 0 C3 9.9 3 19.8 3 30 C8.28 30 13.56 30 19 30 C19 30.99 19 31.98 19 33 C12.73 33 6.46 33 0 33 C0 22.11 0 11.22 0 0 Z " fill="#D0794E" transform="translate(280,556)"/>
<path d="M0 0 C0.99 0.33 1.98 0.66 3 1 C3 11.23 3 21.46 3 32 C1.68 32 0.36 32 -1 32 C-4.22265625 26.82421875 -4.22265625 26.82421875 -5 25 C-4.505 23.515 -4.505 23.515 -4 22 C-3.34 22.33 -2.68 22.66 -2 23 C-1.97494385 22.3387915 -1.9498877 21.67758301 -1.92407227 20.99633789 C-1.80846898 18.01817695 -1.68558246 15.0403608 -1.5625 12.0625 C-1.52318359 11.02158203 -1.48386719 9.98066406 -1.44335938 8.90820312 C-1.38051758 7.42416992 -1.38051758 7.42416992 -1.31640625 5.91015625 C-1.27974854 4.99371338 -1.24309082 4.07727051 -1.20532227 3.13305664 C-1 1 -1 1 0 0 Z " fill="#CA764E" transform="translate(488,556)"/>
<path d="M0 0 C0.99 0.33 1.98 0.66 3 1 C4.16796875 3.36328125 4.16796875 3.36328125 5.1875 6.3125 C5.53167969 7.27800781 5.87585938 8.24351562 6.23046875 9.23828125 C7 12 7 12 7 16 C6.01 16 5.02 16 4 16 C3.01 13.36 2.02 10.72 1 8 C-3.29 7.67 -7.58 7.34 -12 7 C-12.66 9.97 -13.32 12.94 -14 16 C-15.32 16 -16.64 16 -18 16 C-16.25409836 6.10655738 -16.25409836 6.10655738 -12.875 3.125 C-11.946875 2.568125 -11.946875 2.568125 -11 2 C-11 2.99 -11 3.98 -11 5 C-7.37 5 -3.74 5 0 5 C0 3.35 0 1.7 0 0 Z " fill="#EB874D" transform="translate(437,572)"/>
<path d="M0 0 C2.87711536 1.60999201 5.03999931 3.33594422 7 6 C7.82248555 9.3441523 7.67169654 12.45727469 7.4375 15.875 C7.40591797 16.75414062 7.37433594 17.63328125 7.34179688 18.5390625 C7.25980944 20.69416087 7.13426323 22.847526 7 25 C6.34 25 5.68 25 5 25 C4.96261719 23.97519531 4.92523438 22.95039062 4.88671875 21.89453125 C4.82102921 20.53381938 4.75458291 19.17314389 4.6875 17.8125 C4.66494141 17.13896484 4.64238281 16.46542969 4.61914062 15.77148438 C4.384083 11.39086496 3.68541188 8.48912185 1 5 C-1.80734473 2.7026341 -1.80734473 2.7026341 -4.9375 3.125 C-8.40564671 4.11589906 -9.74146884 5.23957303 -12 8 C-13.41634833 10.83269666 -13.3463005 13.47466438 -13.5625 16.625 C-13.64628906 17.81351563 -13.73007812 19.00203125 -13.81640625 20.2265625 C-13.87699219 21.14179687 -13.93757813 22.05703125 -14 23 C-14.33 23 -14.66 23 -15 23 C-15.0544452 20.79194476 -15.09299283 18.58349446 -15.125 16.375 C-15.14820313 15.14523437 -15.17140625 13.91546875 -15.1953125 12.6484375 C-14.95931721 8.24004539 -14.30684983 4.5682198 -11.4375 1.125 C-7.68206338 -0.60827844 -4.0075353 -1.10316291 0 0 Z " fill="#DE804D" transform="translate(341,556)"/>
<path d="M0 0 C15 0 15 0 18.9375 2 C21.23047397 5.33523486 21.76173735 7.10007055 21.4765625 11.0625 C20.74522123 14.0358219 19.12943549 15.87056451 17 18 C15.68 17.34 14.36 16.68 13 16 C13.66 15.649375 14.32 15.29875 15 14.9375 C17.37308948 13.04440465 17.37308948 13.04440465 17.4375 9.4375 C17.293125 8.303125 17.14875 7.16875 17 6 C13.83376253 3.88917502 12.66687122 3.71826614 9 3.5 C5.33312878 3.28173386 4.16623747 3.11082498 1 1 C1 11.23 1 21.46 1 32 C0.67 32 0.34 32 0 32 C0 21.44 0 10.88 0 0 Z " fill="#A66550" transform="translate(642,556)"/>
<path d="M0 0 C0.99 0 1.98 0 3 0 C3 5.28 3 10.56 3 16 C7.95 16 12.9 16 18 16 C18 16.33 18 16.66 18 17 C13.05 17 8.1 17 3 17 C3 21.95 3 26.9 3 32 C2.01 32 1.02 32 0 32 C0 21.44 0 10.88 0 0 Z " fill="#E0814E" transform="translate(553,556)"/>
<path d="M0 0 C0.66 0.33 1.32 0.66 2 1 C1.04882866 2.1725131 0.08882991 3.33787015 -0.875 4.5 C-1.40867187 5.1496875 -1.94234375 5.799375 -2.4921875 6.46875 C-2.98976563 6.9740625 -3.48734375 7.479375 -4 8 C-4.66 8 -5.32 8 -6 8 C-6 21.86 -6 35.72 -6 50 C-6.33 49.34 -6.66 48.68 -7 48 C-7.66 48 -8.32 48 -9 48 C-9.09920549 42.84055127 -9.17162646 37.68166311 -9.21972656 32.52148438 C-9.2397871 30.76780521 -9.26704251 29.01419247 -9.30175781 27.26074219 C-9.35052302 24.73355682 -9.37302392 22.20725909 -9.390625 19.6796875 C-9.41127014 18.90132538 -9.43191528 18.12296326 -9.45318604 17.3210144 C-9.45595566 10.53440911 -6.932857 7.02071414 -2.25 2.125 C-1.5075 1.42375 -0.765 0.7225 0 0 Z " fill="#A27F58" transform="translate(412,468)"/>
<path d="M0 0 C1.60488281 0.00676758 1.60488281 0.00676758 3.2421875 0.01367188 C5.86984986 0.02540251 8.49739538 0.04181772 11.125 0.0625 C11.125 0.3925 11.125 0.7225 11.125 1.0625 C10.24932373 1.092229 10.24932373 1.092229 9.35595703 1.12255859 C6.65359732 1.21912861 3.95187606 1.32825973 1.25 1.4375 C0.3321875 1.4684375 -0.585625 1.499375 -1.53125 1.53125 C-2.44648438 1.56992187 -3.36171875 1.60859375 -4.3046875 1.6484375 C-5.13210449 1.6798584 -5.95952148 1.7112793 -6.81201172 1.74365234 C-11.21064529 2.20153657 -15.53847852 3.1951957 -19.875 4.0625 C-19.875 13.3025 -19.875 22.5425 -19.875 32.0625 C-20.535 32.0625 -21.195 32.0625 -21.875 32.0625 C-21.875 23.1525 -21.875 14.2425 -21.875 5.0625 C-23.195 4.7325 -24.515 4.4025 -25.875 4.0625 C-17.03684155 0.55771303 -9.47644016 -0.0758582 0 0 Z " fill="#081551" transform="translate(468.875,333.9375)"/>
<path d="M0 0 C0.33 0 0.66 0 1 0 C1.6425906 9.68475827 2.12294228 19.28755957 2 29 C7.61 29 13.22 29 19 29 C19 29.66 19 30.32 19 31 C12.73 31 6.46 31 0 31 C0 20.77 0 10.54 0 0 Z " fill="#EA864D" transform="translate(599,557)"/>
<path d="M0 0 C1.25425781 0.01804687 2.50851562 0.03609375 3.80078125 0.0546875 C5.22970703 0.08949219 5.22970703 0.08949219 6.6875 0.125 C7.0175 0.785 7.3475 1.445 7.6875 2.125 C6.7696875 2.04378906 5.851875 1.96257812 4.90625 1.87890625 C-3.78479743 1.32668518 -3.78479743 1.32668518 -11.0625 5.5 C-12.17807629 6.6786306 -13.26750274 7.88336347 -14.3125 9.125 C-14.9725 9.785 -15.6325 10.445 -16.3125 11.125 C-16.55610073 14.25314514 -16.55610073 14.25314514 -16.4375 17.75 C-16.41945313 18.93851562 -16.40140625 20.12703125 -16.3828125 21.3515625 C-16.35960937 22.26679688 -16.33640625 23.18203125 -16.3125 24.125 C-18.3125 23.125 -18.3125 23.125 -19.3125 20.125 C-20.01248014 15.64671797 -20.27262673 11.76127232 -17.92578125 7.76171875 C-12.57417486 1.41176496 -8.3327516 -0.15575237 0 0 Z " fill="#B28A57" transform="translate(311.3125,466.875)"/>
<path d="M0 0 C2 1 2 1 2.8515625 2.9609375 C3.10679687 3.75757813 3.36203125 4.55421875 3.625 5.375 C3.88539063 6.16648437 4.14578125 6.95796875 4.4140625 7.7734375 C5 10 5 10 5 13 C2.03 13 -0.94 13 -4 13 C-3.40895235 8.15340923 -2.02055843 4.39251833 0 0 Z " fill="#181F57" transform="translate(431,563)"/>
<path d="M0 0 C1.98 0 3.96 0 6 0 C5.1850708 0.40379883 4.3701416 0.80759766 3.53051758 1.22363281 C-0.55414785 5.70513935 0.3841702 10.57778695 0.51171875 16.421875 C0.52233086 18.24455902 0.52233086 18.24455902 0.53315735 20.10406494 C0.56115494 23.98666842 0.62390904 27.86783208 0.6875 31.75 C0.71257567 34.3814896 0.7353901 37.01300179 0.75585938 39.64453125 C0.8109996 46.09684576 0.89468185 52.54832003 1 59 C0.34 59 -0.32 59 -1 59 C-1.0231666 51.75032602 -1.04093714 44.50066003 -1.05181217 37.25095654 C-1.05703154 33.8846576 -1.06411203 30.51838398 -1.07543945 27.15209961 C-1.08753899 23.28238245 -1.09323604 19.41270134 -1.09765625 15.54296875 C-1.10281754 14.33352097 -1.10797882 13.12407318 -1.11329651 11.87797546 C-1.11337204 10.75703995 -1.11344757 9.63610443 -1.11352539 8.48120117 C-1.115746 7.49302902 -1.11796661 6.50485687 -1.12025452 5.48674011 C-1 3 -1 3 0 0 Z " fill="#CD9C57" transform="translate(351,467)"/>
<path d="M0 0 C0.66 0.33 1.32 0.66 2 1 C1.67 4.96 1.34 8.92 1 13 C6.61 13 12.22 13 18 13 C18 13.66 18 14.32 18 15 C11.73 15 5.46 15 -1 15 C-1.125 2.25 -1.125 2.25 0 0 Z " fill="#E9864D" transform="translate(690,573)"/>
<path d="M0 0 C0.33 0 0.66 0 1 0 C1.14515677 3.10367497 1.23400853 6.20648027 1.3125 9.3125 C1.3753418 10.63411133 1.3753418 10.63411133 1.43945312 11.98242188 C1.48570998 14.41553258 1.47279437 16.61184133 1 19 C-1.62891324 21.30305129 -3.70588969 21.90196323 -7 23 C-6.38722388 20.03824877 -5.74627478 18.61941217 -4 16 C-3.70547416 13.61322924 -3.5071783 11.21373906 -3.375 8.8125 C-3.30023438 7.54019531 -3.22546875 6.26789062 -3.1484375 4.95703125 C-3.09945313 3.98121094 -3.05046875 3.00539063 -3 2 C-2.67 2 -2.34 2 -2 2 C-2 6.95 -2 11.9 -2 17 C-1.34 17 -0.68 17 0 17 C0 11.39 0 5.78 0 0 Z " fill="#985E51" transform="translate(348,564)"/>
<path d="M0 0 C0.66 0 1.32 0 2 0 C4.45489316 5.12325529 5.50341703 9.33895411 6 15 C5.34 15 4.68 15 4 15 C3.01 12.69 2.02 10.38 1 8 C0.01 8.33 -0.98 8.66 -2 9 C-1.125 1.125 -1.125 1.125 0 0 Z " fill="#D47B4E" transform="translate(431,556)"/>
<path d="M0 0 C1.4540625 0.0309375 1.4540625 0.0309375 2.9375 0.0625 C1.72187378 0.81708496 1.72187378 0.81708496 0.48168945 1.58691406 C-2.33228202 4.32500741 -2.66678695 5.69224769 -2.78144836 9.54705811 C-2.77751572 10.24824768 -2.77358307 10.94943726 -2.76953125 11.671875 C-2.78465256 12.39868469 -2.79977386 13.12549438 -2.81535339 13.87432861 C-2.85821568 16.18736833 -2.86706588 18.49910281 -2.875 20.8125 C-2.89814581 22.38414925 -2.92351135 23.95576748 -2.95117188 25.52734375 C-3.01400834 29.3725111 -3.04635517 33.21686458 -3.0625 37.0625 C-4.0525 37.0625 -5.0425 37.0625 -6.0625 37.0625 C-6.0625 36.4025 -6.0625 35.7425 -6.0625 35.0625 C-5.4025 35.0625 -4.7425 35.0625 -4.0625 35.0625 C-4.06773682 34.03777588 -4.07297363 33.01305176 -4.07836914 31.95727539 C-4.09641969 28.16854724 -4.1079322 24.37982291 -4.11743164 20.59106445 C-4.12247174 18.94880536 -4.12930378 17.30655077 -4.13793945 15.66430664 C-4.15001926 13.30874521 -4.15573139 10.95324291 -4.16015625 8.59765625 C-4.16531754 7.85910904 -4.17047882 7.12056183 -4.17579651 6.3596344 C-4.1759925 4.59351912 -4.12444719 2.82752854 -4.0625 1.0625 C-3.0625 0.0625 -3.0625 0.0625 0 0 Z " fill="#D29F57" transform="translate(493.0625,467.9375)"/>
<path d="M0 0 C1.60488281 0.00676758 1.60488281 0.00676758 3.2421875 0.01367188 C5.86984986 0.02540251 8.49739538 0.04181772 11.125 0.0625 C11.125 0.3925 11.125 0.7225 11.125 1.0625 C10.22575806 1.092229 10.22575806 1.092229 9.30834961 1.12255859 C6.55933529 1.21855003 3.81100507 1.32792505 1.0625 1.4375 C-0.35192383 1.48390625 -0.35192383 1.48390625 -1.79492188 1.53125 C-8.26339506 1.80170881 -13.64123927 2.55842524 -19.5625 5.3125 C-21.875 6.0625 -21.875 6.0625 -24.1875 5.1875 C-24.744375 4.81625 -25.30125 4.445 -25.875 4.0625 C-17.03684155 0.55771303 -9.47644016 -0.0758582 0 0 Z " fill="#624251" transform="translate(468.875,333.9375)"/>
<path d="M0 0 C1.423125 0.2475 1.423125 0.2475 2.875 0.5 C5.0137261 3.70808915 5.35230962 4.77698497 4.875 8.5 C3.885 9.16 2.895 9.82 1.875 10.5 C1.875 7.86 1.875 5.22 1.875 2.5 C1.2975 2.78875 0.72 3.0775 0.125 3.375 C-2.125 4.5 -2.125 4.5 -4.3125 5.3125 C-6.40638154 6.40210663 -6.40638154 6.40210663 -6.875 9.125 C-6.9575 9.90875 -7.04 10.6925 -7.125 11.5 C-7.785 11.5 -8.445 11.5 -9.125 11.5 C-7.59669895 6.02358791 -6.12627649 0.98020424 0 0 Z " fill="#A58157" transform="translate(643.125,466.5)"/>
<path d="M0 0 C0 3 0 3 -1.46875 4.80932617 C-2.1390625 5.46392822 -2.809375 6.11853027 -3.5 6.79296875 C-4.221875 7.50517578 -4.94375 8.21738281 -5.6875 8.95117188 C-6.450625 9.68916016 -7.21375 10.42714844 -8 11.1875 C-8.763125 11.93708984 -9.52625 12.68667969 -10.3125 13.45898438 C-12.20180839 15.31286823 -14.09775206 17.15941069 -16 19 C-16 14.06349214 -12.32693536 11.4052871 -9 8 C-6.06043996 5.26044168 -3.05755103 2.60689158 0 0 Z " fill="#362D55" transform="translate(567,346)"/>
<path d="M0 0 C2.86724686 0.57344937 3.8614515 0.8614515 6 3 C8.65537372 3.56520003 11.29144713 3.73788198 14 4 C13.01 4.495 13.01 4.495 12 5 C12 5.66 12 6.32 12 7 C8.0482998 7.3763524 6.17705367 7.09508438 2.625 5.1875 C1.75875 4.465625 0.8925 3.74375 0 3 C0 2.01 0 1.02 0 0 Z " fill="#C5744F" transform="translate(234,581)"/>
<path d="M0 0 C2.30874711 2.16614803 4.05290181 4.39206608 5.75 7.0625 C6.19859375 7.75472656 6.6471875 8.44695313 7.109375 9.16015625 C7.40328125 9.76730469 7.6971875 10.37445312 8 11 C7 13 7 13 5 14 C1.535 8.06 1.535 8.06 -2 2 C-1.34 2 -0.68 2 0 2 C0 1.34 0 0.68 0 0 Z " fill="#D67C4E" transform="translate(477,566)"/>
<path d="M0 0 C0.33 0 0.66 0 1 0 C1 10.89 1 21.78 1 33 C0.01 32.67 -0.98 32.34 -2 32 C-2.6875 29.9375 -2.6875 29.9375 -3 28 C-2.01 28.33 -1.02 28.66 0 29 C0 19.43 0 9.86 0 0 Z " fill="#5C5057" transform="translate(488,470)"/>
<path d="M0 0 C0.39832031 0.48082031 0.79664063 0.96164062 1.20703125 1.45703125 C3.43450247 3.37391825 4.78834669 3.47741643 7.6875 3.6875 C8.49574219 3.75324219 9.30398438 3.81898438 10.13671875 3.88671875 C10.75160156 3.92410156 11.36648438 3.96148438 12 4 C12 4.99 12 5.98 12 7 C3.80743982 7.63019694 3.80743982 7.63019694 0.4375 5 C-0.2740625 4.01 -0.2740625 4.01 -1 3 C-0.67 2.01 -0.34 1.02 0 0 Z " fill="#CF794E" transform="translate(329,581)"/>
<path d="M0 0 C3.3 0 6.6 0 10 0 C10 4.29 10 8.58 10 13 C9.67 13 9.34 13 9 13 C9 9.7 9 6.4 9 3 C6.03 3 3.06 3 0 3 C0 2.01 0 1.02 0 0 Z " fill="#C9764F" transform="translate(385,574)"/>
<path d="M0 0 C1.27603607 3.82810821 0.86283987 7.23475107 0.5625 11.1875 C0.51029297 11.93708984 0.45808594 12.68667969 0.40429688 13.45898438 C0.27486216 15.30637082 0.13813482 17.15324371 0 19 C-0.66 19 -1.32 19 -2 19 C-2 13.06 -2 7.12 -2 1 C-1.34 0.67 -0.68 0.34 0 0 Z " fill="#E3824D" transform="translate(375,561)"/>
<path d="M0 0 C0.33 0 0.66 0 1 0 C1.02578125 1.09699219 1.0515625 2.19398438 1.078125 3.32421875 C1.1344269 4.77868448 1.19177377 6.23311003 1.25 7.6875 C1.26417969 8.40873047 1.27835937 9.12996094 1.29296875 9.87304688 C1.5177738 14.79627744 2.40707253 17.35677155 6 21 C4.1875 21.6875 4.1875 21.6875 2 22 C0.36791992 20.79760742 0.36791992 20.79760742 -1 19 C-1.2487793 16.9152832 -1.2487793 16.9152832 -1.07421875 14.55078125 C-1.01943359 13.70322266 -0.96464844 12.85566406 -0.90820312 11.98242188 C-0.79895508 10.66081055 -0.79895508 10.66081055 -0.6875 9.3125 C-0.62626953 8.41982422 -0.56503906 7.52714844 -0.50195312 6.60742188 C-0.34874168 4.40353414 -0.18091866 2.20175794 0 0 Z " fill="#B56C50" transform="translate(375,564)"/>
<path d="M0 0 C1.43655854 -0.08131463 2.8744483 -0.13933559 4.3125 -0.1875 C5.51326172 -0.23970703 5.51326172 -0.23970703 6.73828125 -0.29296875 C9 0 9 0 10.79296875 1.32421875 C12 3 12 3 12 6 C8.125 4.125 8.125 4.125 7 3 C5.65252916 2.76924918 4.29622435 2.58846937 2.9375 2.4375 C1.638125 2.293125 0.33875 2.14875 -1 2 C-0.67 1.34 -0.34 0.68 0 0 Z " fill="#DC7F4D" transform="translate(242,557)"/>
<path d="M0 0 C0.99 0.33 1.98 0.66 3 1 C-0.63 4.63 -4.26 8.26 -8 12 C-8.66 11.67 -9.32 11.34 -10 11 C-8.52116808 9.35386588 -7.04192523 7.70810092 -5.5625 6.0625 C-4.73878906 5.14597656 -3.91507812 4.22945312 -3.06640625 3.28515625 C-1 1 -1 1 0 0 Z " fill="#DAA558" transform="translate(435,224)"/>
<path d="M0 0 C0.66 0.33 1.32 0.66 2 1 C0.89718873 2.27200971 -0.20730769 3.54255853 -1.3125 4.8125 C-1.92738281 5.52019531 -2.54226563 6.22789062 -3.17578125 6.95703125 C-4.73334335 8.70136739 -6.32658875 10.36778041 -8 12 C-8.66 11.67 -9.32 11.34 -10 11 C-8.89718873 9.72799029 -7.79269231 8.45744147 -6.6875 7.1875 C-6.07261719 6.47980469 -5.45773437 5.77210938 -4.82421875 5.04296875 C-3.26665665 3.29863261 -1.67341125 1.63221959 0 0 Z " fill="#D27B4E" transform="translate(439,370)"/>
<path d="M0 0 C0.66 0.33 1.32 0.66 2 1 C-1.96 4.96 -5.92 8.92 -10 13 C-10.66 12.67 -11.32 12.34 -12 12 C-10.75479583 10.55834372 -9.50362077 9.12184348 -8.25 7.6875 C-7.55390625 6.88699219 -6.8578125 6.08648437 -6.140625 5.26171875 C-4.20854665 3.22034399 -2.30056874 1.60107149 0 0 Z " fill="#2F3258" transform="translate(443,227)"/>
<path d="M0 0 C0.66 0 1.32 0 2 0 C2.31523361 4.01922848 2.38044558 6.35183346 0.3125 9.875 C-2.21360261 12.19628348 -3.62765029 12.71897086 -7 13 C-7 12.34 -7 11.68 -7 11 C-6.030625 10.67 -5.06125 10.34 -4.0625 10 C-0.89278582 8.39253557 -0.89278582 8.39253557 -0.37890625 6.01953125 C-0.14912749 4.02222356 -0.06588203 2.00940186 0 0 Z " fill="#E7854D" transform="translate(253,575)"/>
<path d="M0 0 C-1.39750048 3.15835107 -3.05198234 5.32272825 -5.5 7.75 C-6.41265625 8.67039062 -6.41265625 8.67039062 -7.34375 9.609375 C-9 11 -9 11 -11 11 C-9.60249952 7.84164893 -7.94801766 5.67727175 -5.5 3.25 C-4.8915625 2.63640625 -4.283125 2.0228125 -3.65625 1.390625 C-2 0 -2 0 0 0 Z " fill="#302A56" transform="translate(446,375)"/>
<path d="M0 0 C0.66 0.33 1.32 0.66 2 1 C1.04882866 2.1725131 0.08882991 3.33787015 -0.875 4.5 C-1.40867187 5.1496875 -1.94234375 5.799375 -2.4921875 6.46875 C-2.98976563 6.9740625 -3.48734375 7.479375 -4 8 C-4.66 8 -5.32 8 -6 8 C-6 9.65 -6 11.3 -6 13 C-6.66 13 -7.32 13 -8 13 C-7.88759583 8.3914291 -6.61543768 6.27090202 -3.4375 3.125 C-2.30330262 2.07067568 -1.16107206 1.02465367 0 0 Z " fill="#BA8F57" transform="translate(412,468)"/>
<path d="M0 0 C0.66 0.33 1.32 0.66 2 1 C0.92492371 2.29854721 -0.16043736 3.58858361 -1.25 4.875 C-1.85328125 5.59429687 -2.4565625 6.31359375 -3.078125 7.0546875 C-4.97087634 8.97052118 -6.53657727 9.96449045 -9 11 C-7.59155282 7.78475695 -5.89655214 5.67816132 -3.375 3.25 C-2.74335938 2.63640625 -2.11171875 2.0228125 -1.4609375 1.390625 C-0.73777344 0.70226562 -0.73777344 0.70226562 0 0 Z " fill="#2D2855" transform="translate(383,293)"/>
<path d="M0 0 C0.66 0 1.32 0 2 0 C2.33 2.31 2.66 4.62 3 7 C2.01 6.67 1.02 6.34 0 6 C0 6.99 0 7.98 0 9 C-0.66 9 -1.32 9 -2 9 C-1.125 1.125 -1.125 1.125 0 0 Z " fill="#E3824E" transform="translate(431,556)"/>
<path d="M0 0 C0.33333333 1.33333333 0.66666667 2.66666667 1 4 C1.309375 5.0209375 1.309375 5.0209375 1.625 6.0625 C2 8 2 8 1 11 C-0.32 11 -1.64 11 -3 11 C-2.32829194 7.1936543 -1.27253436 3.64793184 0 0 Z " fill="#B86D50" transform="translate(422,577)"/>
<path d="M0 0 C2.6855594 2.6855594 3.06049974 5.37621328 4 9 C1.69 9.33 -0.62 9.66 -3 10 C-2.01 9.67 -1.02 9.34 0 9 C0 6.03 0 3.06 0 0 Z " fill="#342D55" transform="translate(449,300)"/>
<path d="M0 0 C2.12508244 3.18762365 2.5020163 5.26512223 3 9 C2.01 9 1.02 9 0 9 C-1.125 6.1875 -1.125 6.1875 -2 3 C-1.34 2.01 -0.68 1.02 0 0 Z " fill="#D17A4E" transform="translate(441,579)"/>
<path d="M0 0 C0.78375 0.185625 1.5675 0.37125 2.375 0.5625 C4.97089775 1.25962266 4.97089775 1.25962266 7 0 C7 2.97 7 5.94 7 9 C6.34 9 5.68 9 5 9 C5 7.02 5 5.04 5 3 C3.35 2.67 1.7 2.34 0 2 C0 1.34 0 0.68 0 0 Z " fill="#1E2253" transform="translate(442,208)"/>
<path d="M0 0 C4.875 0.875 4.875 0.875 6 2 C6.04063832 3.66617115 6.042721 5.33388095 6 7 C3 6 3 6 1.3125 2.9375 C0.879375 1.968125 0.44625 0.99875 0 0 Z " fill="#C4734F" transform="translate(389,560)"/>
<path d="M0 0 C2.05078125 0.03255208 4.1015625 0.06510417 6.15234375 0.09765625 C6.15234375 0.42765625 6.15234375 0.75765625 6.15234375 1.09765625 C3.84234375 1.42765625 1.53234375 1.75765625 -0.84765625 2.09765625 C-1.50765625 4.40765625 -2.16765625 6.71765625 -2.84765625 9.09765625 C-3.97265625 7.34765625 -3.97265625 7.34765625 -4.84765625 5.09765625 C-3.0133987 0.15927054 -3.0133987 0.15927054 0 0 Z " fill="#C1724F" transform="translate(242.84765625,555.90234375)"/>
<path d="M0 0 C0.66 0.33 1.32 0.66 2 1 C0.87895467 2.31587941 -0.24696965 3.62760353 -1.375 4.9375 C-2.00148438 5.66839844 -2.62796875 6.39929688 -3.2734375 7.15234375 C-5 9 -5 9 -7 10 C-5.6062718 5.56541027 -3.39417765 3.12621626 0 0 Z " fill="#C0714F" transform="translate(528,300)"/>
<path d="M0 0 C0 0.33 0 0.66 0 1 C-1.051875 1.103125 -2.10375 1.20625 -3.1875 1.3125 C-6.87430754 1.97733415 -8.96638599 2.88566296 -12 5 C-11.0518738 2.62968451 -10.31103322 1.23327492 -8.25 -0.3125 C-5.24827907 -1.22969251 -3.02230874 -0.68688835 0 0 Z " fill="#403152" transform="translate(341,559)"/>
<path d="M0 0 C1.4540625 0.0309375 1.4540625 0.0309375 2.9375 0.0625 C1.7 0.8978125 1.7 0.8978125 0.4375 1.75 C-2.3370414 3.81177133 -2.3370414 3.81177133 -2.375 6.8125 C-2.271875 7.555 -2.16875 8.2975 -2.0625 9.0625 C-2.7225 8.7325 -3.3825 8.4025 -4.0625 8.0625 C-4.10491723 5.72955225 -4.10342937 3.39547433 -4.0625 1.0625 C-3.0625 0.0625 -3.0625 0.0625 0 0 Z " fill="#B08958" transform="translate(552.0625,466.9375)"/>
<path d="M0 0 C0.66 0.33 1.32 0.66 2 1 C1.04882866 2.1725131 0.08882991 3.33787015 -0.875 4.5 C-1.40867187 5.1496875 -1.94234375 5.799375 -2.4921875 6.46875 C-2.98976563 6.9740625 -3.48734375 7.479375 -4 8 C-4.66 8 -5.32 8 -6 8 C-4.55746343 4.63408134 -2.66735273 2.48952921 0 0 Z " fill="#2D2957" transform="translate(393,305)"/>
<path d="M0 0 C1.32 0.33 2.64 0.66 4 1 C4.33 3.97 4.66 6.94 5 10 C3.33333333 6.66666667 1.66666667 3.33333333 0 0 Z " fill="#E9864D" transform="translate(657,558)"/>
<path d="M0 0 C1.27350058 3.01009228 0.99687398 4.00781505 -0.25 7.125 C-2 10 -2 10 -5 12 C-3.41037341 7.96479403 -1.71767682 3.98188718 0 0 Z " fill="#353556" transform="translate(523,286)"/>
</svg>
